<svg width="1400" height="1021" viewBox="0 0 1400 1021" fill="none" xmlns="http://www.w3.org/2000/svg">
<path d="M1499.09 768.131C1528.76 797.193 1550.18 832.69 1560.72 873.73C1560.89 874.416 1561.07 875.103 1561.24 875.797C1577.15 940.31 1566.3 1018.38 1518.5 1106.66C1516.35 1110.65 1514.13 1114.66 1511.82 1118.67C1503.98 1132.34 1495.27 1146.26 1485.65 1160.39C1485.4 1160.73 1485.17 1161.09 1484.93 1161.45C1484.01 1162.77 1483.09 1164.1 1482.16 1165.44C1481.99 1165.7 1481.81 1165.95 1481.63 1166.19C1479.67 1169.04 1477.65 1171.89 1475.61 1174.75C1467.58 1185.93 1458.98 1197.26 1449.8 1208.71C1449.07 1209.62 1448.33 1210.52 1447.6 1211.44C1438.97 1222.11 1429.83 1232.89 1420.19 1243.78C1418.28 1245.93 1416.35 1248.08 1414.4 1250.24C1410.25 1254.84 1406.02 1259.46 1401.68 1264.08C1400.8 1265.01 1399.94 1265.95 1399.05 1266.89C1398.48 1267.5 1397.9 1268.11 1397.32 1268.73C1397.02 1269.06 1396.7 1269.38 1396.4 1269.71C1395.75 1270.38 1395.11 1271.06 1394.47 1271.73C1393.4 1272.85 1392.32 1273.98 1391.24 1275.1C1389.83 1276.56 1388.42 1278.02 1387 1279.49L1386.99 1279.5C1385.55 1280.98 1384.09 1282.47 1382.63 1283.96L1382.64 1283.97C1382.44 1284.14 1382.26 1284.34 1382.08 1284.53L1381.59 1285.02C1380.63 1286 1379.65 1286.98 1378.68 1287.95C1371.76 1294.94 1364.63 1301.95 1357.29 1309.01C1345.48 1320.33 1333.13 1331.77 1320.2 1343.29C1316.02 1347.01 1311.77 1350.76 1307.46 1354.51C1306.54 1355.32 1305.61 1356.13 1304.67 1356.94C1302.47 1358.85 1300.27 1360.74 1298.07 1362.61C1295.18 1365.06 1292.3 1367.47 1289.41 1369.85C1287.49 1371.44 1285.58 1373.02 1283.64 1374.57C1282.65 1375.38 1281.67 1376.18 1280.67 1376.96C1277.43 1379.57 1274.19 1382.12 1270.94 1384.65C1270.68 1384.86 1270.4 1385.07 1270.13 1385.27C1269 1386.16 1267.87 1387.03 1266.74 1387.89L1266.7 1387.93C1264.96 1389.26 1263.23 1390.59 1261.48 1391.9C1260.52 1392.62 1259.55 1393.35 1258.58 1394.06C1256.48 1395.63 1254.38 1397.17 1252.29 1398.72C1250.74 1399.86 1249.19 1400.97 1247.63 1402.08C1245.56 1403.57 1243.48 1405.06 1241.41 1406.53C1241.24 1406.65 1241.07 1406.77 1240.88 1406.88C1239.53 1407.85 1238.17 1408.8 1236.81 1409.73C1232.53 1412.72 1228.23 1415.63 1223.93 1418.49C1222.85 1419.21 1221.78 1419.92 1220.7 1420.61C1214.6 1424.62 1208.48 1428.51 1202.35 1432.29C1201.18 1433 1200.03 1433.72 1198.87 1434.42C1194.25 1437.22 1189.63 1439.97 1185 1442.66C1182.84 1443.91 1180.68 1445.15 1178.51 1446.36C1175.53 1448.05 1172.55 1449.71 1169.56 1451.35C1167.45 1452.51 1165.35 1453.64 1163.24 1454.77C1163.13 1454.83 1163.03 1454.89 1162.9 1454.94C1160.44 1456.27 1157.97 1457.57 1155.49 1458.85C1153.23 1460.03 1150.95 1461.2 1148.68 1462.34C1146.25 1463.57 1143.82 1464.78 1141.4 1465.98C1139.94 1466.7 1138.48 1467.41 1137.02 1468.11C1133.59 1469.78 1130.16 1471.39 1126.74 1472.99C1125.8 1473.42 1124.87 1473.85 1123.95 1474.28C1114.69 1478.53 1105.41 1482.56 1096.12 1486.35C1095.12 1486.75 1094.13 1487.16 1093.13 1487.57C1091.04 1488.4 1088.96 1489.24 1086.87 1490.06C1084.78 1490.89 1082.69 1491.69 1080.59 1492.49C1078.31 1493.36 1076.05 1494.21 1073.79 1495.05C1072.9 1495.39 1072 1495.71 1071.13 1496.03C1060.72 1499.84 1050.31 1503.38 1039.9 1506.67C1038.56 1507.07 1037.22 1507.5 1035.88 1507.9C1032.95 1508.82 1030 1509.7 1027.07 1510.57C1026.9 1510.62 1026.74 1510.66 1026.59 1510.72C1024.92 1511.21 1023.25 1511.7 1021.58 1512.17C1019.84 1512.66 1018.11 1513.15 1016.39 1513.64C1015.1 1514 1013.81 1514.35 1012.53 1514.7C1011.15 1515.07 1009.77 1515.44 1008.38 1515.82C1006.71 1516.27 1005.03 1516.7 1003.35 1517.13C1001.66 1517.57 999.988 1518 998.295 1518.42C993.257 1519.69 988.225 1520.9 983.187 1522.05C914.385 1537.82 846.188 1543.12 780.677 1541.24C760.657 1540.67 740.89 1539.44 721.441 1537.62C707.269 1536.29 693.282 1534.68 679.454 1532.77C678.448 1532.64 677.438 1532.5 676.415 1532.35C645.452 1528.01 615.442 1522.34 586.636 1515.72C581.67 1514.59 576.742 1513.42 571.851 1512.22C559.36 1509.18 547.115 1505.97 535.132 1502.62C517.286 1497.64 500.037 1492.38 483.455 1486.93C480.613 1486.01 477.785 1485.07 474.991 1484.12C474.123 1483.83 473.263 1483.54 472.402 1483.25C440.526 1472.46 411.239 1461.09 385.072 1450.01C376.002 1446.17 367.301 1442.37 358.992 1438.63C338.782 1429.54 320.946 1420.86 305.802 1413.13C302.037 1411.21 298.439 1409.33 295.019 1407.55C282.442 1400.95 272.185 1395.25 264.504 1390.83C261.138 1388.92 258.278 1387.24 255.927 1385.85C250.968 1382.91 246.028 1379.98 241.07 1377.09C199.895 1353.09 -13.3346 1220.38 -68.9059 1016.34C-91.9235 931.842 -87.9092 835.121 -33.46 728.811C27.2448 610.342 150.595 479.961 369.019 341.356C882.566 15.4766 1048.77 199.335 934.67 395.392C930.096 403.254 925.838 410.968 921.903 418.526C827.676 599.292 917.543 691.092 1224.02 678.358C1225.12 678.316 1226.22 678.267 1227.31 678.233C1248.13 677.496 1268.54 678.064 1288.37 679.882C1294.9 680.479 1301.36 681.198 1307.75 682.057C1323.78 684.215 1339.37 687.221 1354.44 691.019L1354.46 691.024C1387.31 699.304 1417.67 711.398 1444.57 727.019C1464.85 738.775 1483.16 752.529 1499.09 768.131Z" fill="url(#paint0_linear)"/>
<defs>
<linearGradient id="paint0_linear" x1="959" y1="440.774" x2="2727.52" y2="1191.86" gradientUnits="userSpaceOnUse">
<stop stop-color="#EAF6FF"/>
<stop offset="1" stop-color="#2A95D3"/>
</linearGradient>
</defs>
</svg>
