<svg width="1400" height="1802" viewBox="0 0 1400 1802" fill="none" xmlns="http://www.w3.org/2000/svg">
<path d="M-259.292 790.467C-276.283 818.868 -281.872 852.682 -273.745 890.932C-273.61 891.572 -273.475 892.212 -273.329 892.858C-259.886 952.947 -212.788 1023.88 -123.124 1101.99C-119.082 1105.53 -114.953 1109.07 -110.737 1112.61C-96.4102 1124.67 -81.073 1136.92 -64.7052 1149.3C-64.287 1149.61 -63.8869 1149.92 -63.4756 1150.23C-61.9211 1151.4 -60.3669 1152.56 -58.8014 1153.73C-58.5056 1153.96 -58.2034 1154.18 -57.9053 1154.39C-54.5831 1156.88 -51.2028 1159.38 -47.7936 1161.88C-34.4124 1171.65 -20.382 1181.53 -5.70016 1191.49C-4.53447 1192.27 -3.35775 1193.06 -2.18764 1193.86C11.5714 1203.13 25.9017 1212.47 40.8076 1221.89C43.7558 1223.74 46.7219 1225.6 49.7103 1227.46C56.0811 1231.44 62.55 1235.42 69.1238 1239.41C70.4568 1240.21 71.7721 1241.01 73.1163 1241.82C73.9819 1242.35 74.8543 1242.87 75.7311 1243.41C76.1917 1243.69 76.6703 1243.97 77.1309 1244.25C78.1034 1244.82 79.0693 1245.41 80.0419 1245.99C81.6531 1246.95 83.2755 1247.92 84.8979 1248.89C87.021 1250.15 89.1332 1251.4 91.2675 1252.66L91.2786 1252.67C93.4352 1253.94 95.6208 1255.22 97.8064 1256.5L97.7996 1256.51C98.0846 1256.66 98.3561 1256.83 98.6344 1256.99L99.3577 1257.41C100.798 1258.26 102.244 1259.09 103.691 1259.93C113.998 1265.92 124.538 1271.93 135.313 1277.96C152.631 1287.65 170.55 1297.4 189.111 1307.2C195.115 1310.37 201.189 1313.55 207.332 1316.73C208.656 1317.42 209.981 1318.11 211.317 1318.8C214.447 1320.42 217.573 1322.02 220.695 1323.61C224.779 1325.68 228.842 1327.72 232.901 1329.73C235.6 1331.07 238.288 1332.4 240.989 1333.71C242.372 1334.4 243.75 1335.07 245.136 1335.73C249.652 1337.93 254.154 1340.08 258.642 1342.2C259.011 1342.39 259.388 1342.56 259.764 1342.73C261.323 1343.47 262.889 1344.2 264.443 1344.93L264.499 1344.96C266.895 1346.08 269.281 1347.19 271.673 1348.29C272.998 1348.9 274.323 1349.51 275.644 1350.1C278.519 1351.42 281.379 1352.71 284.238 1354C286.345 1354.95 288.448 1355.88 290.557 1356.8C293.368 1358.05 296.186 1359.29 298.981 1360.51C299.218 1360.62 299.443 1360.72 299.685 1360.81C301.519 1361.62 303.347 1362.41 305.172 1363.18C310.934 1365.66 316.679 1368.08 322.405 1370.44C323.842 1371.04 325.267 1371.63 326.688 1372.2C334.789 1375.52 342.852 1378.72 350.882 1381.83C352.401 1382.41 353.914 1383 355.422 1383.57C361.445 1385.86 367.448 1388.11 373.426 1390.3C376.221 1391.32 379.004 1392.33 381.778 1393.31C385.615 1394.68 389.437 1396.03 393.255 1397.36C395.951 1398.29 398.625 1399.21 401.306 1400.12C401.442 1400.16 401.578 1400.21 401.732 1400.25C404.866 1401.33 407.99 1402.37 411.122 1403.39C413.985 1404.35 416.856 1405.28 419.711 1406.2C422.765 1407.18 425.814 1408.14 428.852 1409.1C430.675 1409.67 432.498 1410.24 434.317 1410.79C438.595 1412.12 442.859 1413.39 447.101 1414.66C448.256 1415 449.41 1415.33 450.547 1415.68C461.999 1419.03 473.362 1422.17 484.626 1425.09C485.841 1425.41 487.038 1425.72 488.253 1426.03C490.775 1426.68 493.296 1427.32 495.814 1427.95C498.336 1428.59 500.849 1429.2 503.362 1429.81C506.097 1430.46 508.811 1431.11 511.514 1431.75C512.582 1432.01 513.646 1432.25 514.691 1432.49C527.112 1435.37 539.407 1438 551.587 1440.39C553.152 1440.69 554.722 1441 556.277 1441.29C559.705 1441.96 563.125 1442.59 566.533 1443.21C566.722 1443.24 566.912 1443.28 567.095 1443.32C569.029 1443.67 570.963 1444.02 572.892 1444.36C574.902 1444.7 576.9 1445.05 578.892 1445.4C580.38 1445.65 581.857 1445.89 583.334 1446.14C584.92 1446.4 586.506 1446.66 588.092 1446.92C590.017 1447.23 591.938 1447.53 593.859 1447.82C595.791 1448.13 597.7 1448.42 599.628 1448.7C605.374 1449.57 611.09 1450.39 616.782 1451.14C694.536 1461.52 766.845 1462.34 833.095 1456.74C853.342 1455.04 873.025 1452.74 892.114 1449.92C906.02 1447.86 919.607 1445.56 932.89 1442.98C933.865 1442.81 934.835 1442.62 935.811 1442.42C965.534 1436.61 993.661 1429.63 1020.12 1421.86C1024.69 1420.53 1029.2 1419.17 1033.66 1417.77C1045.05 1414.25 1056.12 1410.58 1066.85 1406.8C1082.84 1401.18 1098.08 1395.33 1112.56 1389.36C1115.05 1388.34 1117.51 1387.31 1119.93 1386.27C1120.69 1385.96 1121.44 1385.65 1122.19 1385.33C1149.87 1373.54 1174.63 1361.39 1196.33 1349.68C1203.86 1345.62 1211.02 1341.62 1217.81 1337.7C1234.32 1328.17 1248.59 1319.16 1260.54 1311.17C1263.51 1309.19 1266.34 1307.26 1269.02 1305.42C1278.86 1298.62 1286.74 1292.79 1292.57 1288.29C1295.14 1286.33 1297.3 1284.63 1299.06 1283.21C1302.79 1280.22 1306.5 1277.24 1310.25 1274.3C1341.37 1249.86 1498.64 1115.56 1461.52 925.196C1446.15 846.365 1397.45 757.927 1292.66 663.682C1175.86 558.66 989.388 446.424 701.723 332.278C25.3815 63.9064 -60.1426 242.314 147.131 415.31C155.441 422.248 -135.086 449.644 73.1164 449.644C-135.087 536.524 300.986 685.404 -18.8644 691.874C-20.0078 691.901 -21.162 691.921 -22.2942 691.955C-43.968 692.512 -64.6123 694.241 -84.0882 697.082C-90.5034 698.016 -96.7873 699.057 -102.936 700.223C-118.367 703.151 -132.955 706.83 -146.639 711.203L-146.656 711.209C-176.497 720.745 -202.025 733.631 -222.386 749.546C-237.746 761.525 -250.162 775.219 -259.292 790.467Z" fill="url(#paint0_linear)" fill-opacity="0.3"/>
<defs>
<linearGradient id="paint0_linear" x1="626.038" y1="306.581" x2="1650.74" y2="-464.074" gradientUnits="userSpaceOnUse">
<stop stop-color="white"/>
<stop offset="1" stop-color="#44A1FF"/>
</linearGradient>
</defs>
</svg>
