<svg width="976" height="1125" viewBox="0 0 976 1125" fill="none" xmlns="http://www.w3.org/2000/svg">
<path d="M1290.87 493.9C1315.07 517.609 1332.55 546.567 1341.14 580.047C1341.29 580.607 1341.43 581.167 1341.57 581.733C1354.55 634.362 1345.7 698.048 1306.71 770.069C1304.95 773.329 1303.14 776.596 1301.25 779.87C1294.86 791.019 1287.76 802.372 1279.91 813.899C1279.7 814.183 1279.51 814.47 1279.32 814.764C1278.57 815.847 1277.82 816.93 1277.06 818.019C1276.92 818.236 1276.78 818.442 1276.62 818.633C1275.02 820.957 1273.38 823.286 1271.72 825.617C1265.16 834.735 1258.15 843.979 1250.66 853.325C1250.07 854.06 1249.46 854.801 1248.87 855.551C1241.83 864.255 1234.37 873.044 1226.5 881.932C1224.94 883.686 1223.37 885.436 1221.78 887.199C1218.4 890.954 1214.94 894.723 1211.41 898.495C1210.69 899.254 1209.98 900.017 1209.26 900.783C1208.79 901.285 1208.32 901.778 1207.85 902.286C1207.6 902.553 1207.34 902.815 1207.09 903.082C1206.57 903.63 1206.05 904.187 1205.52 904.735C1204.65 905.647 1203.77 906.564 1202.89 907.482C1201.73 908.675 1200.59 909.862 1199.43 911.061L1199.42 911.068C1198.25 912.279 1197.05 913.493 1195.86 914.707L1195.87 914.716C1195.71 914.859 1195.56 915.022 1195.41 915.175L1195.01 915.572C1194.23 916.376 1193.44 917.171 1192.64 917.965C1187 923.667 1181.18 929.387 1175.19 935.143C1165.56 944.384 1155.49 953.711 1144.93 963.108C1141.52 966.149 1138.06 969.201 1134.54 972.264C1133.79 972.924 1133.03 973.584 1132.26 974.25C1130.47 975.807 1128.68 977.349 1126.88 978.874C1124.52 980.874 1122.17 982.835 1119.81 984.781C1118.25 986.074 1116.69 987.361 1115.11 988.628C1114.3 989.293 1113.5 989.942 1112.68 990.582C1110.04 992.711 1107.4 994.792 1104.75 996.851C1104.53 997.027 1104.31 997.194 1104.08 997.36C1103.17 998.081 1102.24 998.792 1101.32 999.497L1101.29 999.528C1099.87 1000.61 1098.46 1001.69 1097.03 1002.77C1096.25 1003.36 1095.46 1003.95 1094.66 1004.53C1092.95 1005.81 1091.24 1007.07 1089.53 1008.33C1088.27 1009.26 1087.01 1010.17 1085.73 1011.07C1084.04 1012.29 1082.34 1013.5 1080.66 1014.7C1080.52 1014.8 1080.38 1014.9 1080.23 1014.99C1079.12 1015.78 1078.02 1016.56 1076.9 1017.31C1073.41 1019.75 1069.9 1022.12 1066.4 1024.46C1065.52 1025.04 1064.64 1025.62 1063.76 1026.19C1058.79 1029.46 1053.79 1032.63 1048.79 1035.72C1047.84 1036.3 1046.9 1036.89 1045.95 1037.46C1042.19 1039.74 1038.41 1041.98 1034.64 1044.17C1032.87 1045.19 1031.11 1046.21 1029.35 1047.19C1026.91 1048.57 1024.48 1049.93 1022.04 1051.27C1020.32 1052.21 1018.61 1053.14 1016.89 1054.06C1016.8 1054.1 1016.71 1054.15 1016.61 1054.2C1014.6 1055.28 1012.59 1056.34 1010.57 1057.38C1008.72 1058.35 1006.86 1059.3 1005.01 1060.23C1003.03 1061.24 1001.04 1062.22 999.066 1063.2C997.876 1063.79 996.687 1064.37 995.493 1064.93C992.701 1066.3 989.897 1067.61 987.106 1068.92C986.344 1069.27 985.582 1069.62 984.837 1069.97C977.278 1073.44 969.707 1076.72 962.13 1079.82C961.31 1080.15 960.507 1080.48 959.688 1080.81C957.987 1081.49 956.286 1082.18 954.582 1082.84C952.881 1083.53 951.173 1084.18 949.465 1084.83C947.604 1085.53 945.755 1086.23 943.912 1086.91C943.186 1087.19 942.456 1087.45 941.742 1087.71C933.25 1090.82 924.76 1093.71 916.267 1096.39C915.17 1096.73 914.077 1097.07 912.986 1097.4C910.593 1098.15 908.193 1098.87 905.798 1099.58C905.664 1099.61 905.529 1099.65 905.405 1099.7C904.045 1100.1 902.685 1100.5 901.322 1100.88C899.902 1101.28 898.488 1101.68 897.085 1102.08C896.031 1102.38 894.983 1102.66 893.935 1102.94C892.808 1103.25 891.682 1103.55 890.556 1103.86C889.189 1104.22 887.818 1104.58 886.447 1104.93C885.071 1105.29 883.706 1105.64 882.325 1105.98C878.215 1107.01 874.11 1108.01 870 1108.95C813.872 1121.81 758.237 1126.13 704.793 1124.6C688.462 1124.13 672.336 1123.13 656.47 1121.65C644.908 1120.56 633.497 1119.25 622.217 1117.68C621.396 1117.58 620.572 1117.47 619.738 1117.34C594.478 1113.81 569.996 1109.17 546.496 1103.78C542.445 1102.86 538.425 1101.9 534.435 1100.92C524.245 1098.44 514.255 1095.83 504.48 1093.09C489.921 1089.03 475.849 1084.74 462.322 1080.29C460.003 1079.54 457.696 1078.77 455.417 1078C454.709 1077.77 454.007 1077.53 453.305 1077.29C427.301 1068.49 403.409 1059.21 382.062 1050.17C374.662 1047.04 367.564 1043.94 360.786 1040.89C344.299 1033.47 329.748 1026.39 317.393 1020.09C314.322 1018.52 311.387 1016.99 308.597 1015.53C298.337 1010.15 289.969 1005.5 283.703 1001.9C280.957 1000.33 278.624 998.968 276.706 997.832C272.66 995.436 268.63 993.044 264.586 990.687C230.995 971.104 57.0439 862.842 11.7092 696.385C-7.06846 627.454 -3.79357 548.55 40.6257 461.823C90.1483 365.177 190.777 258.812 368.965 145.739C787.914 -120.111 923.504 29.8793 830.42 189.822C826.688 196.236 823.215 202.528 820.005 208.694C743.135 356.162 816.448 431.052 1066.47 420.663C1067.36 420.63 1068.27 420.59 1069.15 420.562C1086.14 419.961 1102.79 420.424 1118.97 421.907C1124.29 422.394 1129.56 422.98 1134.77 423.681C1147.85 425.442 1160.57 427.894 1172.86 430.992L1172.88 430.996C1199.68 437.751 1224.45 447.617 1246.39 460.361C1262.94 469.952 1277.88 481.172 1290.87 493.9Z" fill="url(#paint0_linear)" fill-opacity="0.29"/>
<defs>
<linearGradient id="paint0_linear" x1="395.754" y1="479.851" x2="1307.52" y2="-54.0462" gradientUnits="userSpaceOnUse">
<stop stop-color="white"/>
<stop offset="1" stop-color="#44A1FF"/>
</linearGradient>
</defs>
</svg>
