<svg width="1400" height="777" viewBox="0 0 1400 777" fill="none" xmlns="http://www.w3.org/2000/svg">
<path d="M1739.69 -186.571C1752.95 -221.321 1752.54 -259.836 1736.08 -300.584C1735.81 -301.266 1735.53 -301.948 1735.24 -302.635C1708.64 -366.517 1642.67 -435.831 1528.19 -504.784C1523.02 -507.909 1517.76 -511.021 1512.4 -514.119C1494.19 -524.677 1474.83 -535.235 1454.3 -545.749C1453.77 -546.004 1453.27 -546.268 1452.75 -546.537C1450.81 -547.521 1448.86 -548.504 1446.9 -549.493C1446.53 -549.693 1446.15 -549.879 1445.78 -550.046C1441.62 -552.16 1437.39 -554.265 1433.13 -556.366C1416.41 -564.569 1398.95 -572.767 1380.76 -580.925C1379.32 -581.564 1377.86 -582.207 1376.41 -582.864C1359.37 -590.44 1341.69 -597.976 1323.35 -605.491C1319.73 -606.972 1316.08 -608.444 1312.41 -609.926C1304.58 -613.082 1296.65 -616.23 1288.59 -619.355C1286.96 -619.981 1285.35 -620.617 1283.7 -621.248C1282.64 -621.667 1281.58 -622.071 1280.5 -622.495C1279.94 -622.717 1279.35 -622.929 1278.79 -623.151C1277.6 -623.6 1276.41 -624.063 1275.23 -624.512C1273.25 -625.262 1271.27 -626.016 1269.29 -626.771C1266.69 -627.748 1264.11 -628.72 1261.5 -629.702L1261.49 -629.707C1258.85 -630.698 1256.18 -631.686 1253.51 -632.673L1253.52 -632.687C1253.17 -632.796 1252.84 -632.934 1252.5 -633.058L1251.62 -633.379C1249.86 -634.035 1248.1 -634.677 1246.33 -635.319C1233.75 -639.946 1220.92 -644.537 1207.81 -649.113C1186.76 -656.454 1165.02 -663.75 1142.57 -670.968C1135.3 -673.305 1127.96 -675.638 1120.54 -677.967C1118.94 -678.468 1117.34 -678.97 1115.72 -679.476C1111.94 -680.658 1108.17 -681.821 1104.41 -682.965C1099.48 -684.466 1094.59 -685.924 1089.7 -687.363C1086.45 -688.319 1083.22 -689.269 1079.97 -690.192C1078.31 -690.684 1076.65 -691.158 1074.99 -691.617C1069.56 -693.172 1064.16 -694.67 1058.78 -696.143C1058.33 -696.273 1057.88 -696.388 1057.43 -696.503C1055.56 -697.022 1053.69 -697.527 1051.83 -698.027L1051.76 -698.051C1048.89 -698.821 1046.03 -699.586 1043.17 -700.337C1041.58 -700.752 1040 -701.167 1038.42 -701.563C1034.98 -702.459 1031.56 -703.331 1028.15 -704.203C1025.63 -704.844 1023.12 -705.466 1020.61 -706.074C1017.25 -706.907 1013.89 -707.726 1010.56 -708.534C1010.28 -708.605 1010.01 -708.67 1009.72 -708.726C1007.54 -709.263 1005.36 -709.781 1003.19 -710.279C996.324 -711.904 989.495 -713.451 982.697 -714.955C980.99 -715.334 979.297 -715.708 977.613 -716.062C968 -718.153 958.451 -720.125 948.958 -721.995C947.163 -722.341 945.373 -722.701 943.591 -723.042C936.479 -724.402 929.396 -725.718 922.353 -726.972C919.061 -727.555 915.783 -728.134 912.521 -728.674C908.007 -729.444 903.514 -730.19 899.029 -730.916C895.863 -731.422 892.724 -731.917 889.579 -732.399C889.419 -732.424 889.26 -732.45 889.081 -732.467C885.403 -733.045 881.743 -733.585 878.076 -734.111C874.721 -734.604 871.361 -735.083 868.022 -735.538C864.451 -736.029 860.888 -736.501 857.339 -736.968C855.21 -737.241 853.081 -737.515 850.961 -737.769C845.967 -738.406 840.998 -738.985 836.057 -739.555C834.713 -739.704 833.369 -739.854 832.044 -740.013C818.716 -741.483 805.527 -742.741 792.489 -743.783C791.083 -743.89 789.697 -744.007 788.291 -744.114C785.374 -744.335 782.458 -744.555 779.549 -744.757C776.633 -744.977 773.733 -745.159 770.833 -745.341C767.676 -745.536 764.547 -745.721 761.431 -745.9C760.199 -745.977 758.975 -746.034 757.77 -746.101C743.461 -746.861 729.34 -747.375 715.392 -747.648C713.602 -747.669 711.803 -747.709 710.026 -747.725C706.102 -747.795 702.194 -747.826 698.3 -747.852C698.084 -747.85 697.868 -747.848 697.657 -747.86C695.448 -747.872 693.239 -747.883 691.039 -747.875C688.746 -747.868 686.468 -747.857 684.194 -747.86C682.499 -747.846 680.817 -747.827 679.135 -747.809C677.328 -747.787 675.522 -747.765 673.716 -747.743C671.524 -747.716 669.34 -747.67 667.157 -747.624C664.959 -747.582 662.789 -747.531 660.6 -747.471C654.071 -747.308 647.585 -747.097 641.138 -746.823C553.056 -743.138 472.866 -729.933 400.634 -710.808C378.559 -704.965 357.223 -698.579 336.645 -691.739C321.657 -686.746 307.068 -681.543 292.869 -676.101C291.824 -675.721 290.788 -675.322 289.746 -674.908C257.984 -662.677 228.215 -649.462 200.444 -635.697C195.65 -633.334 190.923 -630.946 186.264 -628.534C174.338 -622.41 162.807 -616.191 151.669 -609.91C135.068 -600.571 119.335 -591.126 104.48 -581.685C101.927 -580.075 99.4008 -578.456 96.9206 -576.835C96.1418 -576.342 95.3767 -575.844 94.6115 -575.347C66.2749 -556.903 41.2384 -538.617 19.505 -521.426C11.9721 -515.466 4.82616 -509.641 -1.92244 -503.978C-18.339 -490.205 -32.3748 -477.441 -44.0462 -466.276C-46.9474 -463.498 -49.6932 -460.81 -52.3005 -458.249C-61.8686 -448.809 -69.4509 -440.813 -75.0292 -434.692C-77.4892 -432.029 -79.5438 -429.72 -81.2232 -427.808C-84.7655 -423.776 -88.289 -419.754 -91.8615 -415.765C-121.532 -382.636 -269.393 -203.308 -191.153 0.136837C-158.759 84.3858 -87.6025 172.764 46.7665 256.622C196.535 350.064 424.822 437.892 765.479 508.087C1566.41 673.124 1626.25 458.976 1363.08 307.958C1352.53 301.902 1668.74 214.882 1438.3 255.514C1651.78 118.726 1140.09 39.0499 1492.83 -30.5305C1494.09 -30.7835 1495.36 -31.0316 1496.61 -31.2895C1520.49 -36.1356 1543 -42.0781 1564 -49.0231C1570.92 -51.3089 1577.67 -53.6875 1584.25 -56.1779C1600.76 -62.4297 1616.19 -69.3487 1630.48 -76.8598L1630.49 -76.8694C1661.66 -93.2478 1687.4 -112.491 1706.83 -134.079C1721.49 -150.335 1732.56 -167.914 1739.69 -186.571Z" fill="url(#paint0_linear)" fill-opacity="0.5"/>
<defs>
<linearGradient id="paint0_linear" x1="854.26" y1="521.758" x2="-129.462" y2="1574.68" gradientUnits="userSpaceOnUse">
<stop stop-color="white"/>
<stop offset="1" stop-color="#44A1FF"/>
</linearGradient>
</defs>
</svg>
