<svg width="1400" height="1674" viewBox="0 0 1400 1674" fill="none" xmlns="http://www.w3.org/2000/svg">
<path d="M1733.69 710.429C1746.95 675.679 1746.54 637.164 1730.08 596.416C1729.81 595.734 1729.53 595.052 1729.24 594.365C1702.64 530.483 1636.67 461.169 1522.19 392.216C1517.02 389.091 1511.76 385.979 1506.4 382.881C1488.19 372.323 1468.83 361.765 1448.3 351.251C1447.77 350.996 1447.27 350.732 1446.75 350.463C1444.81 349.479 1442.86 348.496 1440.9 347.507C1440.53 347.307 1440.15 347.121 1439.78 346.954C1435.62 344.84 1431.39 342.735 1427.13 340.634C1410.41 332.431 1392.95 324.233 1374.76 316.075C1373.32 315.436 1371.86 314.793 1370.41 314.136C1353.37 306.56 1335.69 299.024 1317.35 291.509C1313.73 290.028 1310.08 288.556 1306.41 287.074C1298.58 283.918 1290.65 280.77 1282.59 277.645C1280.96 277.019 1279.35 276.383 1277.7 275.752C1276.64 275.333 1275.58 274.929 1274.5 274.505C1273.94 274.283 1273.35 274.071 1272.79 273.849C1271.6 273.4 1270.41 272.937 1269.23 272.488C1267.25 271.738 1265.27 270.984 1263.29 270.229C1260.69 269.252 1258.11 268.28 1255.5 267.298L1255.49 267.293C1252.85 266.302 1250.18 265.314 1247.51 264.327L1247.52 264.313C1247.17 264.204 1246.84 264.066 1246.5 263.942L1245.62 263.621C1243.86 262.965 1242.1 262.323 1240.33 261.681C1227.75 257.054 1214.92 252.463 1201.81 247.887C1180.76 240.546 1159.02 233.25 1136.57 226.032C1129.3 223.695 1121.96 221.362 1114.54 219.033C1112.94 218.532 1111.34 218.03 1109.72 217.524C1105.94 216.342 1102.17 215.179 1098.41 214.035C1093.48 212.534 1088.59 211.076 1083.7 209.637C1080.45 208.681 1077.22 207.731 1073.97 206.808C1072.31 206.316 1070.65 205.842 1068.99 205.383C1063.56 203.828 1058.16 202.33 1052.78 200.857C1052.33 200.727 1051.88 200.612 1051.43 200.497C1049.56 199.978 1047.69 199.473 1045.83 198.973L1045.76 198.949C1042.89 198.179 1040.03 197.414 1037.17 196.663C1035.58 196.248 1034 195.833 1032.42 195.437C1028.98 194.541 1025.56 193.669 1022.15 192.797C1019.63 192.156 1017.12 191.534 1014.61 190.926C1011.25 190.093 1007.89 189.274 1004.56 188.466C1004.28 188.395 1004.01 188.33 1003.72 188.274C1001.54 187.737 999.357 187.219 997.187 186.721C990.324 185.096 983.495 183.549 976.697 182.045C974.99 181.666 973.297 181.292 971.613 180.938C962 178.847 952.451 176.875 942.958 175.005C941.163 174.659 939.373 174.299 937.591 173.958C930.479 172.598 923.396 171.282 916.353 170.028C913.061 169.445 909.783 168.866 906.521 168.326C902.007 167.556 897.514 166.81 893.029 166.084C889.863 165.578 886.724 165.083 883.579 164.601C883.419 164.576 883.26 164.55 883.081 164.533C879.403 163.955 875.743 163.415 872.076 162.889C868.721 162.396 865.361 161.917 862.022 161.462C858.451 160.971 854.888 160.499 851.339 160.032C849.21 159.759 847.081 159.485 844.961 159.231C839.967 158.594 834.998 158.015 830.057 157.445C828.713 157.296 827.369 157.146 826.044 156.987C812.716 155.517 799.527 154.259 786.489 153.217C785.083 153.11 783.697 152.993 782.291 152.886C779.374 152.665 776.458 152.445 773.549 152.243C770.633 152.023 767.733 151.841 764.833 151.659C761.676 151.464 758.547 151.279 755.431 151.1C754.199 151.023 752.975 150.966 751.77 150.899C737.461 150.139 723.34 149.625 709.392 149.352C707.602 149.331 705.803 149.291 704.026 149.275C700.102 149.205 696.194 149.174 692.3 149.148C692.084 149.15 691.868 149.152 691.657 149.14C689.448 149.128 687.239 149.117 685.039 149.125C682.746 149.132 680.468 149.143 678.194 149.14C676.499 149.154 674.817 149.173 673.135 149.191C671.328 149.213 669.522 149.235 667.716 149.257C665.524 149.284 663.34 149.33 661.157 149.376C658.959 149.418 656.789 149.469 654.6 149.529C648.071 149.692 641.585 149.903 635.138 150.177C547.056 153.862 466.866 167.067 394.634 186.192C372.559 192.035 351.223 198.421 330.645 205.261C315.657 210.254 301.068 215.457 286.869 220.899C285.824 221.279 284.788 221.678 283.746 222.092C251.984 234.323 222.215 247.538 194.444 261.303C189.65 263.666 184.923 266.054 180.264 268.466C168.338 274.59 156.807 280.809 145.669 287.09C129.068 296.429 113.335 305.874 98.48 315.315C95.9268 316.925 93.4008 318.544 90.9206 320.165C90.1418 320.658 89.3767 321.156 88.6115 321.653C60.2749 340.097 35.2384 358.383 13.505 375.574C5.97208 381.534 -1.17384 387.359 -7.92244 393.022C-24.339 406.795 -38.3748 419.559 -50.0462 430.724C-52.9474 433.502 -55.6932 436.19 -58.3005 438.751C-67.8686 448.191 -75.4509 456.187 -81.0292 462.308C-83.4892 464.971 -85.5438 467.28 -87.2232 469.192C-90.7655 473.224 -94.289 477.246 -97.8615 481.235C-127.532 514.364 -275.393 693.692 -197.153 897.137C-164.759 981.386 -93.6025 1069.76 40.7665 1153.62C190.535 1247.06 418.822 1334.89 759.479 1405.09C1560.41 1570.12 1620.25 1355.98 1357.08 1204.96C1346.53 1198.9 1662.74 1111.88 1432.3 1152.51C1645.78 1015.73 1134.09 936.05 1486.83 866.47C1488.09 866.217 1489.36 865.968 1490.61 865.71C1514.49 860.864 1537 854.922 1558 847.977C1564.92 845.691 1571.67 843.313 1578.25 840.822C1594.76 834.57 1610.19 827.651 1624.48 820.14L1624.49 820.131C1655.66 803.752 1681.4 784.509 1700.83 762.921C1715.49 746.665 1726.56 729.086 1733.69 710.429Z" fill="url(#paint0_linear)" fill-opacity="0.5"/>
<path fill-rule="evenodd" clip-rule="evenodd" d="M1424 206L14.1812 143.392L-6.74808 614.683C38.1327 639.47 95.0673 658.39 152.043 665.635C241.934 676.97 333.081 660.037 424.925 627.4C515.613 594.712 605.829 598.718 694.745 632.039C770.65 660.485 846.251 695.798 921.145 730.781C933.981 736.777 946.797 742.763 959.589 748.703C1048.18 789.353 1139.33 772.42 1231.5 732.454C1293.41 705.232 1355.92 676.581 1404.48 645.523L1424 206Z" fill="url(#paint1_linear)" fill-opacity="0.29"/>
<path fill-rule="evenodd" clip-rule="evenodd" d="M1400 -11H0V609.151C45.5714 630.879 102.831 646.505 159.617 651C249.206 658 338.794 638 428.383 603C516.823 568 606.411 568 696 596C772.48 619.903 848.961 650.365 924.727 680.543C937.712 685.715 950.677 690.879 963.617 696C1053.21 731 1142.79 711 1232.38 669C1292.54 640.429 1353.24 610.471 1400 578.809V-11Z" fill="url(#paint2_linear)"/>
<defs>
<linearGradient id="paint0_linear" x1="848.26" y1="1418.76" x2="-135.462" y2="2471.68" gradientUnits="userSpaceOnUse">
<stop stop-color="white"/>
<stop offset="1" stop-color="#44A1FF"/>
</linearGradient>
<linearGradient id="paint1_linear" x1="62.1099" y1="472.817" x2="1228.64" y2="1182.01" gradientUnits="userSpaceOnUse">
<stop stop-color="white"/>
<stop offset="1" stop-color="#44A1FF"/>
</linearGradient>
<linearGradient id="paint2_linear" x1="-392" y1="497" x2="787.72" y2="1641.46" gradientUnits="userSpaceOnUse">
<stop stop-color="#DEF4FF"/>
<stop offset="0.326668" stop-color="#21CCFD"/>
<stop offset="1" stop-color="#0C1679"/>
</linearGradient>
</defs>
</svg>
