<svg width="1400" height="875" viewBox="0 0 1400 875" fill="none" xmlns="http://www.w3.org/2000/svg">
<path d="M-499.789 -118.178C-513.456 -153.988 -513.03 -193.677 -496.069 -235.668C-495.786 -236.371 -495.504 -237.074 -495.207 -237.782C-467.791 -303.612 -399.809 -375.04 -281.836 -446.096C-276.515 -449.316 -271.094 -452.522 -265.572 -455.715C-246.806 -466.596 -226.851 -477.475 -205.692 -488.31C-205.154 -488.572 -204.636 -488.845 -204.103 -489.122C-202.096 -490.135 -200.09 -491.149 -198.069 -492.168C-197.685 -492.375 -197.296 -492.566 -196.915 -492.738C-192.624 -494.917 -188.266 -497.086 -183.875 -499.251C-166.649 -507.704 -148.66 -516.152 -129.911 -524.559C-128.424 -525.217 -126.924 -525.88 -125.428 -526.557C-107.871 -534.364 -89.6497 -542.13 -70.7551 -549.874C-67.0188 -551.4 -63.2632 -552.917 -59.4796 -554.444C-51.4143 -557.696 -43.235 -560.94 -34.9363 -564.161C-33.2549 -564.806 -31.5926 -565.461 -29.8973 -566.111C-28.8031 -566.543 -27.7037 -566.96 -26.5957 -567.396C-26.0136 -567.625 -25.4123 -567.844 -24.8304 -568.072C-23.605 -568.535 -22.385 -569.012 -21.1597 -569.475C-19.1287 -570.247 -17.0837 -571.025 -15.0386 -571.803C-12.3644 -572.809 -9.70379 -573.811 -7.01542 -574.823L-7.00154 -574.828C-4.28519 -575.85 -1.53558 -576.867 1.21415 -577.885L1.20876 -577.9C1.56366 -578.012 1.90802 -578.154 2.25766 -578.281L3.16661 -578.612C4.97928 -579.289 6.7973 -579.95 8.61531 -580.612C21.5771 -585.38 34.8055 -590.111 48.3091 -594.826C70.0088 -602.391 92.4063 -609.909 115.546 -617.348C123.031 -619.756 130.598 -622.16 138.245 -624.56C139.894 -625.077 141.543 -625.593 143.206 -626.115C147.102 -627.333 150.989 -628.532 154.868 -629.71C159.943 -631.257 164.987 -632.76 170.022 -634.243C173.369 -635.228 176.703 -636.207 180.047 -637.158C181.763 -637.666 183.47 -638.154 185.182 -638.627C190.776 -640.229 196.343 -641.772 201.888 -643.291C202.346 -643.424 202.81 -643.543 203.273 -643.661C205.201 -644.196 207.134 -644.717 209.052 -645.232L209.122 -645.257C212.08 -646.05 215.024 -646.839 217.974 -647.612C219.608 -648.04 221.241 -648.468 222.867 -648.876C226.411 -649.799 229.932 -650.698 233.454 -651.596C236.048 -652.257 238.634 -652.898 241.225 -653.525C244.682 -654.383 248.144 -655.226 251.578 -656.06C251.869 -656.132 252.145 -656.199 252.441 -656.257C254.694 -656.81 256.939 -657.344 259.175 -657.858C266.247 -659.532 273.284 -661.127 280.29 -662.677C282.049 -663.067 283.793 -663.452 285.529 -663.817C295.435 -665.972 305.275 -668.003 315.058 -669.931C316.908 -670.287 318.752 -670.659 320.588 -671.01C327.918 -672.411 335.216 -673.768 342.475 -675.059C345.867 -675.661 349.245 -676.257 352.606 -676.813C357.258 -677.607 361.888 -678.375 366.51 -679.124C369.772 -679.645 373.007 -680.156 376.248 -680.652C376.412 -680.678 376.577 -680.705 376.761 -680.722C380.551 -681.318 384.323 -681.874 388.101 -682.416C391.559 -682.925 395.022 -683.418 398.462 -683.887C402.142 -684.393 405.814 -684.879 409.471 -685.361C411.665 -685.642 413.859 -685.924 416.044 -686.186C421.19 -686.842 426.31 -687.439 431.402 -688.026C432.787 -688.18 434.172 -688.334 435.538 -688.498C449.272 -690.013 462.863 -691.31 476.299 -692.383C477.747 -692.494 479.176 -692.614 480.625 -692.725C483.63 -692.952 486.636 -693.179 489.633 -693.387C492.639 -693.614 495.627 -693.801 498.615 -693.989C501.868 -694.19 505.093 -694.38 508.304 -694.565C509.574 -694.644 510.835 -694.703 512.077 -694.772C526.822 -695.555 541.373 -696.085 555.747 -696.366C557.592 -696.388 559.445 -696.429 561.277 -696.446C565.321 -696.518 569.347 -696.55 573.36 -696.577C573.583 -696.575 573.805 -696.572 574.023 -696.585C576.299 -696.596 578.575 -696.608 580.843 -696.6C583.205 -696.593 585.553 -696.582 587.896 -696.584C589.643 -696.57 591.377 -696.551 593.11 -696.532C594.971 -696.509 596.832 -696.487 598.694 -696.464C600.953 -696.436 603.203 -696.389 605.453 -696.341C607.718 -696.299 609.954 -696.246 612.21 -696.183C618.939 -696.016 625.622 -695.798 632.265 -695.516C723.034 -691.719 805.669 -678.111 880.104 -658.402C902.852 -652.382 924.839 -645.801 946.045 -638.752C961.49 -633.607 976.523 -628.245 991.155 -622.637C992.232 -622.246 993.3 -621.834 994.374 -621.408C1027.1 -608.804 1057.78 -595.186 1086.4 -581.001C1091.34 -578.566 1096.21 -576.105 1101.01 -573.619C1113.3 -567.309 1125.18 -560.9 1136.66 -554.428C1153.77 -544.804 1169.98 -535.071 1185.29 -525.342C1187.92 -523.683 1190.52 -522.014 1193.08 -520.344C1193.88 -519.836 1194.67 -519.323 1195.46 -518.81C1224.66 -499.804 1250.46 -480.961 1272.86 -463.245C1280.62 -457.104 1287.98 -451.1 1294.94 -445.265C1311.85 -431.072 1326.32 -417.919 1338.35 -406.413C1341.34 -403.551 1344.17 -400.781 1346.85 -398.142C1356.71 -388.414 1364.53 -380.174 1370.27 -373.866C1372.81 -371.122 1374.93 -368.742 1376.66 -366.772C1380.31 -362.617 1383.94 -358.472 1387.62 -354.362C1418.19 -320.223 1570.57 -135.426 1489.94 74.2239C1456.56 161.042 1383.23 252.116 1244.76 338.531C1090.43 434.822 855.178 525.329 504.133 597.665C-321.226 767.735 -382.89 547.056 -111.698 391.433C-100.824 385.192 -426.67 295.518 -189.209 337.389C-409.198 196.43 118.096 114.324 -245.402 42.6213C-246.7 42.3605 -248.012 42.1049 -249.297 41.839C-273.905 36.8452 -297.102 30.7214 -318.744 23.5646C-325.873 21.2092 -332.83 18.7581 -339.609 16.1917C-356.619 9.7493 -372.518 2.61914 -387.245 -5.12097L-387.264 -5.1308C-419.38 -22.0087 -445.904 -41.8389 -465.926 -64.0852C-481.035 -80.8367 -492.442 -98.9517 -499.789 -118.178Z" fill="url(#paint0_linear)"/>
<defs>
<linearGradient id="paint0_linear" x1="149.594" y1="-144.218" x2="838.709" y2="927.168" gradientUnits="userSpaceOnUse">
<stop stop-color="white"/>
<stop offset="0.536458" stop-color="#52ACE0"/>
<stop offset="1" stop-color="#0C1679"/>
</linearGradient>
</defs>
</svg>
