<svg width="120" height="118" viewBox="0 0 120 118" fill="none" xmlns="http://www.w3.org/2000/svg">
<circle cx="29" cy="83" r="15" fill="#56D0FB"/>
<mask id="mask0" mask-type="alpha" maskUnits="userSpaceOnUse" x="20" y="8" width="90" height="90">
<circle cx="65" cy="53" r="45" fill="white"/>
</mask>
<g mask="url(#mask0)">
<g filter="url(#filter0_d)">
<circle cx="65" cy="53" r="45" fill="url(#paint0_linear)"/>
</g>
<path d="M59.5 69.5C38 31.5 1 46 -2.5 45.5C27.9 139.5 95.5 100.667 125.5 69.5C110.667 82.1667 76.7 99.9 59.5 69.5Z" fill="url(#paint1_linear)"/>
<path fill-rule="evenodd" clip-rule="evenodd" d="M71 35H59C55.6863 35 53 37.6863 53 41V65C53 68.3137 55.6863 71 59 71H71C74.3137 71 77 68.3137 77 65V41C77 37.6863 74.3137 35 71 35ZM57 41C57 39.8954 57.8955 39 59 39H71C72.1046 39 73 39.8954 73 41V65C73 66.1046 72.1046 67 71 67H59C57.8955 67 57 66.1046 57 65V41ZM63 43C61.8955 43 61 43.8954 61 45C61 46.1046 61.8955 47 63 47H67C68.1046 47 69 46.1046 69 45C69 43.8954 68.1046 43 67 43H63Z" fill="#0F2685"/>
<path fill-rule="evenodd" clip-rule="evenodd" d="M59 35H71C74.3137 35 77 37.6863 77 41V65C77 68.3137 74.3137 71 71 71H59C55.6863 71 53 68.3137 53 65V41C53 37.6863 55.6863 35 59 35ZM59 39C57.8955 39 57 39.8954 57 41V65C57 66.1046 57.8955 67 59 67H71C72.1046 67 73 66.1046 73 65V41C73 39.8954 72.1046 39 71 39H59ZM61 45C61 43.8954 61.8955 43 63 43H67C68.1046 43 69 43.8954 69 45C69 46.1046 68.1046 47 67 47H63C61.8955 47 61 46.1046 61 45ZM83 51C81.8955 51 81 51.8954 81 53C81 54.1046 81.8955 55 83 55H87C88.1046 55 89 54.1046 89 53C89 51.8954 88.1046 51 87 51H83ZM81.268 46C80.7157 45.0434 81.0434 43.8202 82 43.2679L85.4641 41.2679C86.4207 40.7157 87.6439 41.0434 88.1962 42C88.7485 42.9566 88.4207 44.1798 87.4641 44.7321L84 46.7321C83.0434 47.2843 81.8203 46.9566 81.268 46ZM82 62.7321C81.0434 62.1798 80.7157 60.9566 81.268 60C81.8203 59.0434 83.0434 58.7157 84 59.2679L87.4641 61.2679C88.4207 61.8202 88.7485 63.0434 88.1962 64C87.6439 64.9566 86.4207 65.2843 85.4641 64.7321L82 62.7321Z" fill="white"/>
</g>
<g style="mix-blend-mode:multiply">
<circle r="15" transform="matrix(-1 0 0 1 105 33)" fill="#5164AA"/>
</g>
<defs>
<filter id="filter0_d" x="3.05176e-05" y="0" width="118" height="118" filterUnits="userSpaceOnUse" color-interpolation-filters="sRGB">
<feFlood flood-opacity="0" result="BackgroundImageFix"/>
<feColorMatrix in="SourceAlpha" type="matrix" values="0 0 0 0 0 0 0 0 0 0 0 0 0 0 0 0 0 0 127 0"/>
<feOffset dx="-6" dy="6"/>
<feGaussianBlur stdDeviation="7"/>
<feColorMatrix type="matrix" values="0 0 0 0 0.397902 0 0 0 0 0.397035 0 0 0 0 0.494154 0 0 0 0.136804 0"/>
<feBlend mode="normal" in2="BackgroundImageFix" result="effect1_dropShadow"/>
<feBlend mode="normal" in="SourceGraphic" in2="effect1_dropShadow" result="shape"/>
</filter>
<linearGradient id="paint0_linear" x1="65" y1="8" x2="65" y2="98" gradientUnits="userSpaceOnUse">
<stop stop-color="#6598FB"/>
<stop offset="1" stop-color="#25D2FF"/>
</linearGradient>
<linearGradient id="paint1_linear" x1="56.5" y1="30" x2="72" y2="84.5" gradientUnits="userSpaceOnUse">
<stop stop-color="#4482FA"/>
<stop offset="1" stop-color="#4482FA" stop-opacity="0"/>
</linearGradient>
</defs>
</svg>
