<svg width="1093" height="1601" viewBox="0 0 1093 1601" fill="none" xmlns="http://www.w3.org/2000/svg">
<path d="M1435.87 660.9C1460.07 684.609 1477.55 713.567 1486.14 747.047C1486.29 747.607 1486.43 748.167 1486.57 748.733C1499.55 801.362 1490.7 865.048 1451.71 937.069C1449.95 940.329 1448.14 943.596 1446.25 946.87C1439.86 958.019 1432.76 969.372 1424.91 980.899C1424.7 981.183 1424.51 981.47 1424.32 981.764C1423.57 982.847 1422.82 983.93 1422.06 985.019C1421.92 985.236 1421.78 985.442 1421.62 985.633C1420.02 987.957 1418.38 990.286 1416.72 992.617C1410.16 1001.73 1403.15 1010.98 1395.66 1020.33C1395.07 1021.06 1394.46 1021.8 1393.87 1022.55C1386.83 1031.26 1379.37 1040.04 1371.5 1048.93C1369.94 1050.69 1368.37 1052.44 1366.78 1054.2C1363.4 1057.95 1359.94 1061.72 1356.41 1065.5C1355.69 1066.25 1354.98 1067.02 1354.26 1067.78C1353.79 1068.28 1353.32 1068.78 1352.85 1069.29C1352.6 1069.55 1352.34 1069.82 1352.09 1070.08C1351.57 1070.63 1351.05 1071.19 1350.52 1071.73C1349.65 1072.65 1348.77 1073.56 1347.89 1074.48C1346.73 1075.68 1345.59 1076.86 1344.43 1078.06L1344.42 1078.07C1343.25 1079.28 1342.05 1080.49 1340.86 1081.71L1340.87 1081.72C1340.71 1081.86 1340.56 1082.02 1340.41 1082.17L1340.01 1082.57C1339.23 1083.38 1338.44 1084.17 1337.64 1084.97C1332 1090.67 1326.18 1096.39 1320.19 1102.14C1310.56 1111.38 1300.49 1120.71 1289.93 1130.11C1286.52 1133.15 1283.06 1136.2 1279.54 1139.26C1278.79 1139.92 1278.03 1140.58 1277.26 1141.25C1275.47 1142.81 1273.68 1144.35 1271.88 1145.87C1269.52 1147.87 1267.17 1149.84 1264.81 1151.78C1263.25 1153.07 1261.69 1154.36 1260.11 1155.63C1259.3 1156.29 1258.5 1156.94 1257.68 1157.58C1255.04 1159.71 1252.4 1161.79 1249.75 1163.85C1249.53 1164.03 1249.31 1164.19 1249.08 1164.36C1248.17 1165.08 1247.24 1165.79 1246.32 1166.5L1246.29 1166.53C1244.87 1167.61 1243.46 1168.69 1242.03 1169.77C1241.25 1170.36 1240.46 1170.95 1239.66 1171.53C1237.95 1172.81 1236.24 1174.07 1234.53 1175.33C1233.27 1176.26 1232.01 1177.17 1230.73 1178.07C1229.04 1179.29 1227.34 1180.5 1225.66 1181.7C1225.52 1181.8 1225.38 1181.9 1225.23 1181.99C1224.12 1182.78 1223.02 1183.56 1221.9 1184.31C1218.41 1186.75 1214.9 1189.12 1211.4 1191.46C1210.52 1192.04 1209.64 1192.62 1208.76 1193.19C1203.79 1196.46 1198.79 1199.63 1193.79 1202.72C1192.84 1203.3 1191.9 1203.89 1190.95 1204.46C1187.19 1206.74 1183.41 1208.98 1179.64 1211.17C1177.87 1212.19 1176.11 1213.21 1174.35 1214.19C1171.91 1215.57 1169.48 1216.93 1167.04 1218.27C1165.32 1219.21 1163.61 1220.14 1161.89 1221.06C1161.8 1221.1 1161.71 1221.15 1161.61 1221.2C1159.6 1222.28 1157.59 1223.34 1155.57 1224.38C1153.72 1225.35 1151.86 1226.3 1150.01 1227.23C1148.03 1228.24 1146.04 1229.22 1144.07 1230.2C1142.88 1230.79 1141.69 1231.37 1140.49 1231.93C1137.7 1233.3 1134.9 1234.61 1132.11 1235.92C1131.34 1236.27 1130.58 1236.62 1129.84 1236.97C1122.28 1240.44 1114.71 1243.72 1107.13 1246.82C1106.31 1247.15 1105.51 1247.48 1104.69 1247.81C1102.99 1248.49 1101.29 1249.18 1099.58 1249.84C1097.88 1250.53 1096.17 1251.18 1094.46 1251.83C1092.6 1252.53 1090.75 1253.23 1088.91 1253.91C1088.19 1254.19 1087.46 1254.45 1086.74 1254.71C1078.25 1257.82 1069.76 1260.71 1061.27 1263.39C1060.17 1263.73 1059.08 1264.07 1057.99 1264.4C1055.59 1265.15 1053.19 1265.87 1050.8 1266.58C1050.66 1266.61 1050.53 1266.65 1050.4 1266.7C1049.04 1267.1 1047.69 1267.5 1046.32 1267.88C1044.9 1268.28 1043.49 1268.68 1042.08 1269.08C1041.03 1269.38 1039.98 1269.66 1038.93 1269.94C1037.81 1270.25 1036.68 1270.55 1035.56 1270.86C1034.19 1271.22 1032.82 1271.58 1031.45 1271.93C1030.07 1272.29 1028.71 1272.64 1027.33 1272.98C1023.22 1274.01 1019.11 1275.01 1015 1275.95C958.872 1288.81 903.237 1293.13 849.793 1291.6C833.462 1291.13 817.336 1290.13 801.47 1288.65C789.908 1287.56 778.497 1286.25 767.217 1284.68C766.396 1284.58 765.572 1284.47 764.738 1284.34C739.478 1280.81 714.996 1276.17 691.496 1270.78C687.445 1269.86 683.425 1268.9 679.435 1267.92C669.245 1265.44 659.255 1262.83 649.48 1260.09C634.921 1256.03 620.849 1251.74 607.322 1247.29C605.003 1246.54 602.696 1245.77 600.417 1245C599.709 1244.77 599.007 1244.53 598.305 1244.29C572.301 1235.49 548.409 1226.21 527.062 1217.17C519.662 1214.04 512.564 1210.94 505.786 1207.89C489.299 1200.47 474.748 1193.39 462.393 1187.09C459.322 1185.52 456.387 1183.99 453.597 1182.53C443.337 1177.15 434.969 1172.5 428.703 1168.9C425.957 1167.33 423.624 1165.97 421.706 1164.83C417.66 1162.44 413.63 1160.04 409.586 1157.69C375.995 1138.1 202.044 1029.84 156.709 863.385C137.932 794.454 141.206 715.55 185.626 628.823C235.148 532.177 335.777 425.812 513.965 312.739C932.914 46.8891 1068.5 196.879 975.42 356.822C971.688 363.236 968.215 369.528 965.005 375.694C888.135 523.162 961.448 598.052 1211.47 587.663C1212.36 587.63 1213.27 587.59 1214.15 587.562C1231.14 586.961 1247.79 587.424 1263.97 588.907C1269.29 589.394 1274.56 589.98 1279.77 590.681C1292.85 592.442 1305.57 594.894 1317.86 597.992L1317.88 597.996C1344.68 604.751 1369.45 614.617 1391.39 627.361C1407.94 636.952 1422.88 648.172 1435.87 660.9Z" fill="url(#paint0_linear)" fill-opacity="0.29"/>
<defs>
<linearGradient id="paint0_linear" x1="540.754" y1="646.851" x2="1452.52" y2="112.954" gradientUnits="userSpaceOnUse">
<stop stop-color="white"/>
<stop offset="1" stop-color="#44A1FF"/>
</linearGradient>
</defs>
</svg>
