<svg width="771" height="301" viewBox="0 0 771 301" fill="none" xmlns="http://www.w3.org/2000/svg">
<path d="M592.283 -142.291C613.589 -159.44 638.465 -170.704 666.123 -174.414C666.586 -174.477 667.048 -174.54 667.516 -174.597C710.942 -180.003 761.16 -166.861 815.198 -128.761C817.645 -127.047 820.091 -125.279 822.537 -123.458C830.869 -117.275 839.296 -110.501 847.793 -103.115C848.001 -102.923 848.213 -102.744 848.43 -102.56C849.227 -101.855 850.024 -101.151 850.826 -100.441C850.986 -100.31 851.138 -100.172 851.276 -100.032C852.987 -98.5288 854.698 -96.9898 856.409 -95.433C863.097 -89.3137 869.843 -82.8136 876.625 -75.9245C877.157 -75.3756 877.693 -74.8212 878.239 -74.2737C884.549 -67.8032 890.886 -60.9903 897.265 -53.8366C898.523 -52.4206 899.777 -50.9923 901.04 -49.553C903.729 -46.484 906.422 -43.3558 909.111 -40.1616C909.651 -39.5123 910.196 -38.8754 910.74 -38.2207C911.099 -37.8016 911.449 -37.3755 911.812 -36.951C912.002 -36.7277 912.188 -36.4921 912.378 -36.2689C912.767 -35.7935 913.165 -35.325 913.554 -34.8497C914.202 -34.0634 914.855 -33.2717 915.507 -32.48C916.354 -31.4416 917.197 -30.4086 918.048 -29.3648L918.052 -29.3592C918.912 -28.3045 919.772 -27.2317 920.631 -26.1591L920.64 -26.166C920.74 -26.0221 920.856 -25.892 920.964 -25.755L921.245 -25.3988C921.815 -24.6933 922.377 -23.9808 922.938 -23.2684C926.973 -18.2034 931.007 -12.9955 935.053 -7.64587C941.547 0.954015 948.069 9.91413 954.6 19.2661C956.714 22.2912 958.832 25.3575 960.954 28.465C961.411 29.1353 961.869 29.8055 962.33 30.4813C963.408 32.066 964.473 33.6521 965.526 35.2395C966.905 37.3151 968.255 39.3879 969.591 41.4623C970.479 42.8415 971.362 44.2153 972.228 45.6028C972.685 46.3089 973.129 47.0165 973.564 47.7309C975.02 50.0481 976.438 52.3695 977.837 54.687C977.958 54.8762 978.07 55.0723 978.182 55.2684C978.673 56.072 979.155 56.8824 979.633 57.6874L979.655 57.7148C980.391 58.9559 981.123 60.1915 981.846 61.434C982.246 62.1225 982.647 62.8109 983.034 63.5008C983.899 64.9957 984.747 66.4865 985.595 67.9773C986.219 69.0759 986.83 70.1759 987.432 71.2829C988.249 72.7532 989.058 74.2305 989.858 75.6968C989.927 75.8202 989.991 75.9382 990.051 76.0685C990.58 77.0287 991.096 77.9903 991.599 78.9533C993.22 81.9848 994.789 85.0221 996.327 88.0568C996.714 88.8182 997.096 89.5741 997.465 90.3314C999.617 94.6325 1001.69 98.9369 1003.69 103.243C1004.06 104.059 1004.44 104.869 1004.81 105.68C1006.28 108.918 1007.72 112.154 1009.12 115.389C1009.77 116.901 1010.42 118.408 1011.04 119.918C1011.91 122.002 1012.77 124.081 1013.61 126.162C1014.2 127.633 1014.78 129.094 1015.36 130.561C1015.39 130.635 1015.42 130.709 1015.44 130.796C1016.12 132.508 1016.78 134.222 1017.42 135.944C1018.02 137.515 1018.61 139.094 1019.18 140.669C1019.8 142.352 1020.4 144.037 1021 145.716C1021.35 146.725 1021.71 147.734 1022.05 148.744C1022.87 151.113 1023.66 153.485 1024.44 155.847C1024.65 156.491 1024.86 157.135 1025.07 157.767C1027.14 164.156 1029.05 170.537 1030.81 176.906C1031 177.594 1031.19 178.27 1031.37 178.958C1031.76 180.386 1032.15 181.815 1032.52 183.245C1032.91 184.673 1033.26 186.104 1033.62 187.536C1034.01 189.095 1034.39 190.643 1034.77 192.185C1034.92 192.794 1035.06 193.404 1035.21 194.001C1036.89 201.105 1038.4 208.185 1039.74 215.249C1039.91 216.16 1040.08 217.07 1040.24 217.975C1040.61 219.965 1040.96 221.957 1041.3 223.944C1041.32 224.056 1041.34 224.167 1041.36 224.271C1041.55 225.4 1041.75 226.528 1041.92 227.657C1042.11 228.834 1042.29 230.004 1042.49 231.168C1042.62 232.041 1042.75 232.908 1042.88 233.775C1043.01 234.707 1043.15 235.639 1043.29 236.571C1043.45 237.702 1043.6 238.834 1043.76 239.967C1043.91 241.105 1044.06 242.232 1044.21 243.371C1044.65 246.764 1045.05 250.15 1045.41 253.534C1050.4 299.754 1048.58 344.768 1042.28 387.47C1040.35 400.52 1038.02 413.352 1035.32 425.932C1033.35 435.098 1031.22 444.122 1028.89 453.017C1028.74 453.666 1028.56 454.316 1028.38 454.973C1023.15 474.888 1017.11 494.076 1010.55 512.404C1009.43 515.564 1008.28 518.697 1007.12 521.802C1004.16 529.737 1001.12 537.497 997.996 545.074C993.359 556.361 988.581 567.235 983.733 577.658C982.908 579.446 982.074 581.222 981.236 582.976C980.983 583.522 980.726 584.062 980.469 584.602C970.94 604.614 961.238 622.888 951.965 639.144C948.75 644.779 945.589 650.176 942.501 655.32C934.989 667.834 927.929 678.827 921.702 688.133C920.153 690.447 918.649 692.655 917.215 694.753C911.925 702.468 907.401 708.735 903.919 713.416C902.407 715.47 901.089 717.211 899.996 718.641C897.692 721.657 895.392 724.66 893.117 727.679C874.228 752.75 770.914 881.93 633.157 902.47C576.111 910.979 513.163 900.861 447.85 857.014C375.069 808.134 299.349 717.358 225.616 563.763C52.2589 202.639 185.384 108.176 304.775 197.991C309.563 201.592 314.278 204.974 318.917 208.133C429.846 283.764 496.848 232.099 512.26 30.6648C512.318 29.944 512.371 29.2176 512.434 28.5022C513.564 14.8253 515.517 1.5226 518.242 -11.3051C519.138 -15.5301 520.108 -19.6977 521.165 -23.8093C523.819 -34.1282 526.993 -44.0935 530.643 -53.6525L530.648 -53.6649C538.608 -74.5108 548.87 -93.43 561.171 -109.816C570.431 -122.171 580.845 -133.08 592.283 -142.291Z" fill="url(#paint0_linear)" fill-opacity="0.3"/>
<defs>
<linearGradient id="paint0_linear" x1="384" y1="304" x2="239.542" y2="-304.127" gradientUnits="userSpaceOnUse">
<stop stop-color="white"/>
<stop offset="1" stop-color="#44A1FF"/>
</linearGradient>
</defs>
</svg>
