<svg width="1400" height="205" viewBox="0 0 1400 205" fill="none" xmlns="http://www.w3.org/2000/svg">
<path d="M159.601 75.1981C109.449 71.2285 43.5127 51.7224 1 33.8527V63L0 205H1018.65H1150.75H1400L1399.98 83.8527V3.00675C1353.22 34.6686 1292.53 64.6274 1232.37 93.1981C1142.78 135.198 1053.19 155.198 963.601 120.198C950.661 115.077 937.696 109.914 924.711 104.741L924.707 104.74L924.7 104.737C848.937 74.5606 772.46 44.1002 695.983 20.1981C606.395 -7.80193 516.806 -7.80193 428.366 27.1981C338.778 62.1981 249.189 82.1981 159.601 75.1981Z" fill="white"/>
<path d="M1 33.8528C43.5128 51.7225 109.449 71.2285 159.601 75.1981C249.189 82.1981 338.778 62.1981 428.366 27.1981C516.806 -7.80193 606.395 -7.80193 695.983 20.1981C772.463 44.1009 848.942 74.5626 924.707 104.74L924.71 104.741L924.711 104.741C937.697 109.914 950.661 115.077 963.601 120.198C1053.19 155.198 1142.78 135.198 1232.37 93.1981C1292.53 64.6274 1353.22 34.6686 1399.98 3.00675V83.8528C1351.86 113.419 1305.86 138.6 1244.47 164.482C1153.11 202.466 1062.72 218.471 974.773 179.531C962.103 173.855 949.411 168.134 936.698 162.405L936.606 162.364L936.605 162.363C862.253 128.854 787.2 95.0294 711.856 67.757C623.598 35.81 534.098 31.8354 444.192 62.8774C353.139 93.8684 262.751 109.874 173.561 98.9064C117.048 91.8991 45.556 68.7173 1 45V33.8528Z" fill="url(#paint0_linear)" fill-opacity="0.29"/>
<defs>
<linearGradient id="paint0_linear" x1="61.2877" y1="-77.5618" x2="1329.27" y2="605.339" gradientUnits="userSpaceOnUse">
<stop stop-color="white"/>
<stop offset="1" stop-color="#44A1FF"/>
</linearGradient>
</defs>
</svg>
