<svg width="28" height="28" viewBox="0 0 28 28" fill="none" xmlns="http://www.w3.org/2000/svg">
<path fill-rule="evenodd" clip-rule="evenodd" d="M14 28C6.26801 28 0 21.732 0 14C0 6.26801 6.26801 0 14 0C21.732 0 28 6.26801 28 14C28 21.732 21.732 28 14 28ZM14 25.2C20.1856 25.2 25.2 20.1856 25.2 14C25.2 7.81441 20.1856 2.8 14 2.8C7.81441 2.8 2.8 7.81441 2.8 14C2.8 20.1856 7.81441 25.2 14 25.2ZM10.9101 19.1899L6.71005 14.9899C6.16332 14.4432 6.16332 13.5568 6.71005 13.0101C7.25678 12.4633 8.14322 12.4633 8.68995 13.0101L11.9 16.2398L18.6101 9.51005C19.1568 8.96332 20.0432 8.96332 20.59 9.51005C21.1367 10.0568 21.1367 10.9432 20.59 11.4899L12.8899 19.1899C12.3432 19.7367 11.4568 19.7367 10.9101 19.1899Z" fill="#5482F2"/>
</svg>
