<svg width="728" height="780" viewBox="0 0 728 780" fill="none" xmlns="http://www.w3.org/2000/svg">
<path d="M2.16528 120.092C1.77295 96.1142 10.9827 72.8711 30.9517 51.8131C31.2852 51.4603 31.6185 51.1076 31.9618 50.7548C63.7788 17.9185 121.979 -9.52844 211.055 -26.0593C215.076 -26.8138 219.156 -27.5388 223.295 -28.2346C237.37 -30.6157 252.18 -32.742 267.725 -34.5842C268.118 -34.6234 268.5 -34.6725 268.893 -34.7215C270.364 -34.8881 271.835 -35.0547 273.316 -35.2213C273.6 -35.2605 273.885 -35.2898 274.159 -35.3094C277.308 -35.6719 280.495 -36.0149 283.703 -36.3481C296.276 -37.6318 309.321 -38.7488 322.826 -39.6797C323.896 -39.7484 324.974 -39.817 326.053 -39.8953C338.686 -40.7282 351.721 -41.3946 365.167 -41.9041C367.825 -42.0021 370.493 -42.0903 373.18 -42.1785C378.908 -42.3647 384.705 -42.5214 390.57 -42.639C391.757 -42.6586 392.934 -42.688 394.13 -42.7076C394.905 -42.7272 395.68 -42.7371 396.465 -42.7567C396.877 -42.7665 397.298 -42.7664 397.71 -42.7762C398.573 -42.7861 399.436 -42.8056 400.3 -42.8154C401.732 -42.835 403.173 -42.8547 404.615 -42.8743C406.498 -42.8939 408.371 -42.9134 410.264 -42.933H410.274C412.187 -42.9526 414.119 -42.9623 416.051 -42.9722V-42.9821C416.296 -42.9722 416.542 -42.9821 416.787 -42.9821H417.424C418.699 -42.9919 419.974 -42.9918 421.249 -42.9918C430.351 -43.0212 439.61 -42.9722 449.035 -42.8546C464.179 -42.6586 479.744 -42.2863 495.751 -41.7081C500.929 -41.522 506.157 -41.3162 511.434 -41.0908C512.571 -41.0418 513.709 -40.9928 514.856 -40.9438C517.544 -40.8262 520.221 -40.6989 522.889 -40.5616C526.381 -40.3853 529.843 -40.1893 533.295 -39.9836C535.591 -39.8464 537.876 -39.7092 540.161 -39.5524C541.338 -39.4838 542.505 -39.4053 543.672 -39.3171C547.497 -39.0624 551.293 -38.7783 555.069 -38.4843C555.383 -38.4647 555.697 -38.4354 556.011 -38.4059C557.325 -38.308 558.639 -38.2001 559.944 -38.0923H559.993C562.003 -37.9258 564.004 -37.7592 566.005 -37.5828C567.113 -37.4848 568.221 -37.3868 569.32 -37.279C571.723 -37.0634 574.106 -36.8381 576.49 -36.6127C578.245 -36.4461 579.991 -36.2697 581.737 -36.0835C584.071 -35.8483 586.405 -35.6034 588.72 -35.3584C588.916 -35.3388 589.103 -35.3193 589.299 -35.2899C590.819 -35.1331 592.33 -34.9665 593.83 -34.7901C598.587 -34.261 603.305 -33.6926 607.993 -33.1046C609.17 -32.9576 610.337 -32.8107 611.494 -32.6539C618.115 -31.8014 624.666 -30.89 631.159 -29.9297C632.385 -29.7435 633.611 -29.5672 634.827 -29.381C639.682 -28.6363 644.508 -27.8719 649.294 -27.0782C651.53 -26.7059 653.757 -26.3335 655.964 -25.9415C659.024 -25.4124 662.064 -24.8735 665.095 -24.3247C667.233 -23.9327 669.351 -23.5408 671.47 -23.1391C671.578 -23.1195 671.686 -23.0999 671.803 -23.0705C674.285 -22.6099 676.747 -22.1298 679.208 -21.6399C681.464 -21.1989 683.72 -20.7482 685.956 -20.2876C688.349 -19.7977 690.733 -19.2979 693.106 -18.7981C694.528 -18.4943 695.951 -18.1906 697.363 -17.877C700.698 -17.1617 704.003 -16.4171 707.289 -15.6723C708.181 -15.4666 709.074 -15.2608 709.956 -15.0648C718.803 -13.0168 727.513 -10.8708 736.075 -8.62683C736.997 -8.38184 737.909 -8.14673 738.831 -7.90173C740.743 -7.39221 742.656 -6.88257 744.559 -6.36322C746.471 -5.8537 748.364 -5.32452 750.257 -4.79541C752.317 -4.21729 754.357 -3.63916 756.387 -3.06104C757.191 -2.83563 757.986 -2.60046 758.771 -2.37506C768.078 0.319641 777.21 3.12207 786.174 6.03235C787.322 6.41449 788.479 6.78693 789.617 7.16907C792.137 7.99219 794.638 8.83496 797.129 9.67767C797.267 9.72668 797.404 9.77557 797.541 9.81476C798.954 10.2949 800.366 10.7751 801.769 11.2651C803.23 11.7746 804.682 12.2841 806.133 12.7838C807.212 13.166 808.281 13.5483 809.35 13.9304C810.498 14.342 811.645 14.7534 812.793 15.165C814.185 15.6647 815.568 16.1744 816.951 16.6839C818.344 17.1934 819.717 17.7029 821.1 18.2223C825.229 19.7607 829.319 21.3188 833.37 22.9062C888.726 44.5619 936.834 70.245 978.488 97.7605C991.219 106.168 1003.35 114.742 1014.9 123.424C1023.3 129.754 1031.4 136.123 1039.2 142.551C1039.78 143.012 1040.35 143.482 1040.92 143.962C1058.34 158.377 1074.27 172.948 1088.8 187.411C1091.31 189.9 1093.77 192.389 1096.18 194.878C1102.37 201.218 1108.29 207.528 1113.94 213.79C1122.36 223.109 1130.21 232.3 1137.49 241.296C1138.75 242.834 1139.99 244.372 1141.19 245.901C1141.58 246.371 1141.95 246.842 1142.32 247.312C1156.12 264.735 1167.85 281.334 1177.73 296.542C1181.15 301.814 1184.36 306.919 1187.35 311.838C1194.63 323.803 1200.62 334.631 1205.47 343.969C1206.68 346.291 1207.81 348.526 1208.88 350.652C1212.79 358.481 1215.77 364.998 1217.91 369.936C1218.86 372.092 1219.64 373.944 1220.26 375.473C1221.59 378.697 1222.9 381.911 1224.26 385.115C1235.5 411.729 1288.2 552.981 1191.02 658.986C1150.77 702.885 1084.84 740.739 979.606 761.914C862.323 785.5 696.235 788.371 462.531 755.78C-86.9402 679.152 -75.3865 536.215 127.638 502.751C135.779 501.409 143.616 499.998 151.138 498.518C331.144 463.183 332.409 389.005 123.46 269.066C122.715 268.635 121.96 268.204 121.224 267.772C107.11 259.571 94.1245 251.006 82.3353 242.168C78.4514 239.257 74.6951 236.328 71.0759 233.368C61.9938 225.941 53.7549 218.346 46.3793 210.644L46.3698 210.635C30.2847 193.839 18.3287 176.505 10.9434 159.141C5.36267 146.06 2.3811 132.968 2.16528 120.092Z" fill="url(#paint0_linear)"/>
<defs>
<linearGradient id="paint0_linear" x1="823.265" y1="813.462" x2="-100.258" y2="79.6255" gradientUnits="userSpaceOnUse">
<stop stop-color="#DEF4FF"/>
<stop offset="0.326668" stop-color="#21CCFD"/>
<stop offset="0.862273" stop-color="#0C1679"/>
</linearGradient>
</defs>
</svg>
