<svg width="746" height="835" viewBox="0 0 746 835" fill="none" xmlns="http://www.w3.org/2000/svg">
<path d="M2.79041 175.092C2.39807 151.114 11.6078 127.871 31.5768 106.813C31.9102 106.461 32.2437 106.108 32.5869 105.755C64.4039 72.9186 122.604 45.4717 211.68 28.9409C215.701 28.1863 219.781 27.4613 223.92 26.7656C237.995 24.3845 252.805 22.2581 268.351 20.4159C268.743 20.3767 269.125 20.3276 269.518 20.2786C270.989 20.1121 272.46 19.9454 273.941 19.7788C274.225 19.7396 274.51 19.7103 274.784 19.6907C277.933 19.3281 281.12 18.9852 284.328 18.652C296.901 17.3683 309.946 16.2513 323.452 15.3204C324.521 15.2518 325.6 15.1832 326.678 15.1048C339.311 14.2719 352.346 13.6056 365.793 13.096C368.451 12.998 371.118 12.9098 373.806 12.8216C379.533 12.6354 385.33 12.4787 391.195 12.3611C392.382 12.3415 393.559 12.3121 394.755 12.2925C395.53 12.2729 396.305 12.2631 397.09 12.2435C397.502 12.2337 397.923 12.2336 398.335 12.2239C399.198 12.2141 400.062 12.1945 400.925 12.1847C402.357 12.1651 403.798 12.1454 405.24 12.1259C407.123 12.1063 408.997 12.0867 410.89 12.0671H410.899C412.812 12.0475 414.744 12.0378 416.676 12.028V12.0181C416.921 12.0279 417.167 12.0181 417.412 12.0181H418.049C419.324 12.0083 420.599 12.0083 421.874 12.0083C430.976 11.9789 440.235 12.0279 449.66 12.1455C464.804 12.3415 480.369 12.7138 496.376 13.292C501.554 13.4781 506.782 13.684 512.059 13.9093C513.196 13.9583 514.334 14.0073 515.482 14.0563C518.169 14.1739 520.847 14.3013 523.514 14.4385C527.006 14.6149 530.468 14.8108 533.921 15.0165C536.216 15.1537 538.501 15.291 540.786 15.4478C541.963 15.5164 543.13 15.5948 544.297 15.683C548.122 15.9377 551.918 16.2218 555.694 16.5158C556.008 16.5354 556.322 16.5648 556.636 16.5942C557.95 16.6922 559.264 16.8 560.569 16.9078H560.618C562.628 17.0743 564.629 17.241 566.63 17.4174C567.738 17.5154 568.847 17.6133 569.945 17.7211C572.348 17.9367 574.731 18.162 577.115 18.3875C578.87 18.554 580.616 18.7304 582.362 18.9166C584.696 19.1518 587.031 19.3967 589.345 19.6417C589.541 19.6613 589.728 19.6808 589.924 19.7103C591.444 19.867 592.955 20.0336 594.455 20.21C599.212 20.7391 603.93 21.3076 608.618 21.8955C609.795 22.0425 610.962 22.1894 612.119 22.3462C618.74 23.1987 625.291 24.1101 631.784 25.0704C633.01 25.2566 634.236 25.4329 635.452 25.6191C640.307 26.3638 645.133 27.1282 649.919 27.9219C652.155 28.2943 654.382 28.6666 656.589 29.0586C659.649 29.5877 662.689 30.1266 665.72 30.6754C667.858 31.0673 669.977 31.4593 672.095 31.861C672.203 31.8806 672.311 31.9002 672.429 31.9296C674.91 32.3902 677.372 32.8702 679.833 33.3602C682.089 33.8011 684.345 34.252 686.581 34.7125C688.975 35.2025 691.358 35.7023 693.731 36.202C695.154 36.5058 696.576 36.8095 697.988 37.1231C701.323 37.8384 704.628 38.5831 707.914 39.3278C708.806 39.5336 709.699 39.7393 710.581 39.9353C719.428 41.9833 728.138 44.1293 736.7 46.3733C737.622 46.6183 738.534 46.8535 739.456 47.0984C741.369 47.608 743.281 48.1176 745.184 48.6369C747.096 49.1464 748.989 49.6755 750.882 50.2047C752.942 50.7828 754.982 51.361 757.012 51.9391C757.817 52.1645 758.611 52.3997 759.396 52.6251C768.703 55.3198 777.835 58.1222 786.799 61.0325C787.947 61.4147 789.104 61.787 790.242 62.1692C792.762 62.9923 795.263 63.8351 797.755 64.6778C797.892 64.7267 798.029 64.7757 798.167 64.8149C799.579 65.295 800.991 65.7752 802.394 66.2652C803.855 66.7747 805.307 67.2842 806.758 67.7839C807.837 68.1661 808.906 68.5483 809.975 68.9305C811.123 69.3421 812.27 69.7535 813.418 70.1651C814.811 70.6649 816.194 71.1744 817.576 71.684C818.969 72.1935 820.342 72.7031 821.725 73.2224C825.854 74.7609 829.944 76.3189 833.995 77.9063C889.351 99.562 937.459 125.245 979.113 152.761C991.844 161.168 1003.98 169.742 1015.52 178.424C1023.93 184.754 1032.03 191.123 1039.82 197.552C1040.4 198.012 1040.97 198.482 1041.54 198.963C1058.97 213.377 1074.9 227.948 1089.42 242.411C1091.93 244.9 1094.4 247.389 1096.81 249.878C1103 256.218 1108.91 262.528 1114.56 268.79C1122.99 278.109 1130.83 287.3 1138.12 296.296C1139.38 297.834 1140.61 299.373 1141.82 300.901C1142.2 301.372 1142.57 301.842 1142.95 302.312C1156.75 319.735 1168.48 336.334 1178.35 351.542C1181.78 356.814 1184.98 361.919 1187.97 366.838C1195.25 378.803 1201.24 389.631 1206.1 398.969C1207.31 401.292 1208.43 403.526 1209.5 405.652C1213.42 413.481 1216.4 419.998 1218.54 424.936C1219.49 427.092 1220.26 428.944 1220.89 430.473C1222.21 433.697 1223.53 436.911 1224.88 440.115C1236.12 466.729 1288.83 607.981 1191.64 713.986C1151.4 757.885 1085.46 795.739 980.232 816.914C862.948 840.5 696.86 843.372 463.156 810.78C-86.3151 734.152 -74.7612 591.215 128.263 557.751C136.404 556.409 144.241 554.998 151.763 553.518C331.769 518.183 333.034 444.005 124.085 324.066C123.34 323.635 122.585 323.204 121.849 322.773C107.735 314.571 94.7496 306.006 82.9604 297.168C79.0765 294.258 75.3202 291.328 71.701 288.368C62.6189 280.941 54.38 273.347 47.0044 265.645L46.9949 265.635C30.9098 248.839 18.9539 231.505 11.5685 214.141C5.98767 201.06 3.00623 187.968 2.79041 175.092Z" fill="url(#paint0_linear)" fill-opacity="0.3"/>
<mask id="mask0" mask-type="alpha" maskUnits="userSpaceOnUse" x="18" y="-43" width="1250" height="823">
<path d="M20.7904 120.092C20.3981 96.1143 29.6078 72.8712 49.5768 51.8132C49.9102 51.4605 50.2437 51.1077 50.5869 50.7549C82.4039 17.9186 140.604 -9.52832 229.68 -26.0591C233.701 -26.8137 237.781 -27.5387 241.92 -28.2344C255.995 -30.6155 270.805 -32.7419 286.351 -34.5841C286.743 -34.6233 287.125 -34.6724 287.518 -34.7214C288.989 -34.8879 290.46 -35.0546 291.941 -35.2212C292.225 -35.2604 292.51 -35.2897 292.784 -35.3093C295.933 -35.6719 299.12 -36.0148 302.328 -36.348C314.901 -37.6317 327.946 -38.7487 341.452 -39.6796C342.521 -39.7482 343.6 -39.8168 344.678 -39.8952C357.311 -40.7281 370.346 -41.3944 383.793 -41.904C386.451 -42.002 389.118 -42.0902 391.806 -42.1784C397.533 -42.3646 403.33 -42.5213 409.195 -42.6389C410.382 -42.6585 411.559 -42.6879 412.755 -42.7075C413.53 -42.7271 414.305 -42.7369 415.09 -42.7565C415.502 -42.7663 415.923 -42.7664 416.335 -42.7761C417.198 -42.7859 418.062 -42.8055 418.925 -42.8153C420.357 -42.8349 421.798 -42.8546 423.24 -42.8741C425.123 -42.8937 426.997 -42.9133 428.89 -42.9329H428.899C430.812 -42.9525 432.744 -42.9622 434.676 -42.972V-42.9819C434.921 -42.9721 435.167 -42.9819 435.412 -42.9819H436.049C437.324 -42.9917 438.599 -42.9917 439.874 -42.9917C448.976 -43.0211 458.235 -42.9721 467.66 -42.8545C482.804 -42.6585 498.369 -42.2862 514.376 -41.708C519.554 -41.5219 524.782 -41.316 530.059 -41.0907C531.196 -41.0417 532.334 -40.9927 533.482 -40.9437C536.169 -40.8261 538.847 -40.6987 541.514 -40.5615C545.006 -40.3851 548.468 -40.1892 551.921 -39.9835C554.216 -39.8463 556.501 -39.709 558.786 -39.5522C559.963 -39.4836 561.13 -39.4052 562.297 -39.317C566.122 -39.0623 569.918 -38.7782 573.694 -38.4842C574.008 -38.4646 574.322 -38.4352 574.636 -38.4058C575.95 -38.3078 577.264 -38.2 578.569 -38.0922H578.618C580.628 -37.9257 582.629 -37.759 584.63 -37.5826C585.738 -37.4846 586.847 -37.3867 587.945 -37.2789C590.348 -37.0633 592.731 -36.838 595.115 -36.6125C596.87 -36.446 598.616 -36.2696 600.362 -36.0834C602.696 -35.8482 605.031 -35.6033 607.345 -35.3583C607.541 -35.3387 607.728 -35.3192 607.924 -35.2897C609.444 -35.133 610.955 -34.9664 612.455 -34.79C617.212 -34.2609 621.93 -33.6924 626.618 -33.1045C627.795 -32.9575 628.962 -32.8106 630.119 -32.6538C636.74 -31.8013 643.291 -30.8899 649.784 -29.9296C651.01 -29.7434 652.236 -29.5671 653.452 -29.3809C658.307 -28.6362 663.133 -27.8718 667.919 -27.0781C670.155 -26.7057 672.382 -26.3334 674.589 -25.9414C677.649 -25.4123 680.689 -24.8734 683.72 -24.3246C685.858 -23.9327 687.977 -23.5407 690.095 -23.139C690.203 -23.1194 690.311 -23.0998 690.429 -23.0704C692.91 -22.6098 695.372 -22.1298 697.833 -21.6398C700.089 -21.1989 702.345 -20.748 704.581 -20.2875C706.975 -19.7975 709.358 -19.2977 711.731 -18.798C713.154 -18.4942 714.576 -18.1905 715.988 -17.8769C719.323 -17.1616 722.628 -16.4169 725.914 -15.6722C726.806 -15.4664 727.699 -15.2607 728.581 -15.0647C737.428 -13.0167 746.138 -10.8707 754.7 -8.62671C755.622 -8.38171 756.534 -8.14655 757.456 -7.90161C759.369 -7.39203 761.281 -6.88245 763.184 -6.3631C765.096 -5.85358 766.989 -5.32446 768.882 -4.79529C770.942 -4.21716 772.982 -3.63904 775.012 -3.06091C775.817 -2.83551 776.611 -2.60034 777.396 -2.37494C786.703 0.319763 795.835 3.12219 804.799 6.03247C805.947 6.41467 807.104 6.78705 808.242 7.16919C810.762 7.99231 813.263 8.83508 815.755 9.6778C815.892 9.72675 816.029 9.7757 816.167 9.81488C817.579 10.295 818.991 10.7752 820.394 11.2652C821.855 11.7747 823.307 12.2842 824.758 12.7839C825.837 13.1661 826.906 13.5483 827.975 13.9305C829.123 14.3421 830.27 14.7535 831.418 15.1651C832.811 15.6649 834.194 16.1744 835.576 16.684C836.969 17.1935 838.342 17.7031 839.725 18.2224C843.854 19.7609 847.944 21.3189 851.995 22.9063C907.351 44.562 955.459 70.2451 997.113 97.7606C1009.84 106.168 1021.98 114.742 1033.52 123.424C1041.93 129.754 1050.03 136.123 1057.82 142.552C1058.4 143.012 1058.97 143.482 1059.54 143.963C1076.97 158.377 1092.9 172.948 1107.42 187.411C1109.93 189.9 1112.4 192.389 1114.81 194.878C1121 201.218 1126.91 207.528 1132.56 213.79C1140.99 223.109 1148.83 232.3 1156.12 241.296C1157.38 242.834 1158.61 244.373 1159.82 245.901C1160.2 246.372 1160.57 246.842 1160.95 247.312C1174.75 264.735 1186.48 281.334 1196.35 296.542C1199.78 301.814 1202.98 306.919 1205.97 311.838C1213.25 323.803 1219.24 334.631 1224.1 343.969C1225.31 346.292 1226.43 348.526 1227.5 350.652C1231.42 358.481 1234.4 364.998 1236.54 369.936C1237.49 372.092 1238.26 373.944 1238.89 375.473C1240.21 378.697 1241.53 381.911 1242.88 385.115C1254.12 411.729 1306.83 552.981 1209.64 658.986C1169.4 702.885 1103.46 740.739 998.232 761.914C880.948 785.5 714.86 788.372 481.156 755.78C-68.3151 679.152 -56.7612 536.215 146.263 502.751C154.404 501.409 162.241 499.998 169.763 498.518C349.769 463.183 351.034 389.005 142.085 269.066C141.34 268.635 140.585 268.204 139.849 267.773C125.735 259.571 112.75 251.006 100.96 242.168C97.0765 239.258 93.3202 236.328 89.701 233.368C80.6189 225.941 72.38 218.347 65.0044 210.645L64.9949 210.635C48.9098 193.839 36.9539 176.505 29.5685 159.141C23.9877 146.06 21.0062 132.968 20.7904 120.092Z" fill="url(#paint1_linear)"/>
</mask>
<g mask="url(#mask0)">
<path d="M20.1653 120.092C19.7729 96.1142 28.9827 72.8711 48.9517 51.8131C49.2852 51.4603 49.6185 51.1076 49.9618 50.7548C81.7788 17.9185 139.979 -9.52844 229.055 -26.0593C233.076 -26.8138 237.156 -27.5388 241.295 -28.2346C255.37 -30.6157 270.18 -32.742 285.725 -34.5842C286.118 -34.6234 286.5 -34.6725 286.893 -34.7215C288.364 -34.8881 289.835 -35.0547 291.316 -35.2213C291.6 -35.2605 291.885 -35.2898 292.159 -35.3094C295.308 -35.6719 298.495 -36.0149 301.703 -36.3481C314.276 -37.6318 327.321 -38.7488 340.826 -39.6797C341.896 -39.7484 342.974 -39.817 344.053 -39.8953C356.686 -40.7282 369.721 -41.3946 383.167 -41.9041C385.825 -42.0021 388.493 -42.0903 391.18 -42.1785C396.908 -42.3647 402.705 -42.5214 408.57 -42.639C409.757 -42.6586 410.934 -42.688 412.13 -42.7076C412.905 -42.7272 413.68 -42.7371 414.465 -42.7567C414.877 -42.7665 415.298 -42.7664 415.71 -42.7762C416.573 -42.7861 417.436 -42.8056 418.3 -42.8154C419.732 -42.835 421.173 -42.8547 422.615 -42.8743C424.498 -42.8939 426.371 -42.9134 428.264 -42.933H428.274C430.187 -42.9526 432.119 -42.9623 434.051 -42.9722V-42.9821C434.296 -42.9722 434.542 -42.9821 434.787 -42.9821H435.424C436.699 -42.9919 437.974 -42.9918 439.249 -42.9918C448.351 -43.0212 457.61 -42.9722 467.035 -42.8546C482.179 -42.6586 497.744 -42.2863 513.751 -41.7081C518.929 -41.522 524.157 -41.3162 529.434 -41.0908C530.571 -41.0418 531.709 -40.9928 532.856 -40.9438C535.544 -40.8262 538.221 -40.6989 540.889 -40.5616C544.381 -40.3853 547.843 -40.1893 551.295 -39.9836C553.591 -39.8464 555.876 -39.7092 558.161 -39.5524C559.338 -39.4838 560.505 -39.4053 561.672 -39.3171C565.497 -39.0624 569.293 -38.7783 573.069 -38.4843C573.383 -38.4647 573.697 -38.4354 574.011 -38.4059C575.325 -38.308 576.639 -38.2001 577.944 -38.0923H577.993C580.003 -37.9258 582.004 -37.7592 584.005 -37.5828C585.113 -37.4848 586.221 -37.3868 587.32 -37.279C589.723 -37.0634 592.106 -36.8381 594.49 -36.6127C596.245 -36.4461 597.991 -36.2697 599.737 -36.0835C602.071 -35.8483 604.405 -35.6034 606.72 -35.3584C606.916 -35.3388 607.103 -35.3193 607.299 -35.2899C608.819 -35.1331 610.33 -34.9665 611.83 -34.7901C616.587 -34.261 621.305 -33.6926 625.993 -33.1046C627.17 -32.9576 628.337 -32.8107 629.494 -32.6539C636.115 -31.8014 642.666 -30.89 649.159 -29.9297C650.385 -29.7435 651.611 -29.5672 652.827 -29.381C657.682 -28.6363 662.508 -27.8719 667.294 -27.0782C669.53 -26.7059 671.757 -26.3335 673.964 -25.9415C677.024 -25.4124 680.064 -24.8735 683.095 -24.3247C685.233 -23.9327 687.351 -23.5408 689.47 -23.1391C689.578 -23.1195 689.686 -23.0999 689.803 -23.0705C692.285 -22.6099 694.747 -22.1298 697.208 -21.6399C699.464 -21.1989 701.72 -20.7482 703.956 -20.2876C706.349 -19.7977 708.733 -19.2979 711.106 -18.7981C712.528 -18.4943 713.951 -18.1906 715.363 -17.877C718.698 -17.1617 722.003 -16.4171 725.289 -15.6723C726.181 -15.4666 727.074 -15.2608 727.956 -15.0648C736.803 -13.0168 745.513 -10.8708 754.075 -8.62683C754.997 -8.38184 755.909 -8.14673 756.831 -7.90173C758.743 -7.39221 760.656 -6.88257 762.559 -6.36322C764.471 -5.8537 766.364 -5.32452 768.257 -4.79541C770.317 -4.21729 772.357 -3.63916 774.387 -3.06104C775.191 -2.83563 775.986 -2.60046 776.771 -2.37506C786.078 0.319641 795.21 3.12207 804.174 6.03235C805.322 6.41449 806.479 6.78693 807.617 7.16907C810.137 7.99219 812.638 8.83496 815.129 9.67767C815.267 9.72668 815.404 9.77557 815.541 9.81476C816.954 10.2949 818.366 10.7751 819.769 11.2651C821.23 11.7746 822.682 12.2841 824.133 12.7838C825.212 13.166 826.281 13.5483 827.35 13.9304C828.498 14.342 829.645 14.7534 830.793 15.165C832.185 15.6647 833.568 16.1744 834.951 16.6839C836.344 17.1934 837.717 17.7029 839.1 18.2223C843.229 19.7607 847.319 21.3188 851.37 22.9062C906.726 44.5619 954.834 70.245 996.488 97.7605C1009.22 106.168 1021.35 114.742 1032.9 123.424C1041.3 129.754 1049.4 136.123 1057.2 142.551C1057.78 143.012 1058.35 143.482 1058.92 143.962C1076.34 158.377 1092.27 172.948 1106.8 187.411C1109.31 189.9 1111.77 192.389 1114.18 194.878C1120.37 201.218 1126.29 207.528 1131.94 213.79C1140.36 223.109 1148.21 232.3 1155.49 241.296C1156.75 242.834 1157.99 244.372 1159.19 245.901C1159.58 246.371 1159.95 246.842 1160.32 247.312C1174.12 264.735 1185.85 281.334 1195.73 296.542C1199.15 301.814 1202.36 306.919 1205.35 311.838C1212.63 323.803 1218.62 334.631 1223.47 343.969C1224.68 346.291 1225.81 348.526 1226.88 350.652C1230.79 358.481 1233.77 364.998 1235.91 369.936C1236.86 372.092 1237.64 373.944 1238.26 375.473C1239.59 378.697 1240.9 381.911 1242.26 385.115C1253.5 411.729 1306.2 552.981 1209.02 658.986C1168.77 702.885 1102.84 740.739 997.606 761.914C880.323 785.5 714.235 788.371 480.531 755.78C-68.9402 679.152 -57.3865 536.215 145.638 502.751C153.779 501.409 161.616 499.998 169.138 498.518C349.144 463.183 350.409 389.005 141.46 269.066C140.715 268.635 139.96 268.204 139.224 267.772C125.11 259.571 112.125 251.006 100.335 242.168C96.4514 239.257 92.6951 236.328 89.0759 233.368C79.9938 225.941 71.7549 218.346 64.3793 210.644L64.3698 210.635C48.2847 193.839 36.3287 176.505 28.9434 159.141C23.3627 146.06 20.3811 132.968 20.1653 120.092Z" fill="url(#paint2_linear)"/>
<path d="M346.777 386.528C354.626 386.528 360.989 380.165 360.989 372.316C360.989 364.466 354.626 358.103 346.777 358.103C338.927 358.103 332.564 364.466 332.564 372.316C332.564 380.165 338.927 386.528 346.777 386.528Z" fill="#BFE4E0"/>
<path fill-rule="evenodd" clip-rule="evenodd" d="M771.471 179.371C1013.11 200.512 986.958 434.389 913.984 669.365C899.308 716.521 879.066 756.485 854.513 790.206L-131 703.985C-130.534 698.662 -129.736 693.368 -128.924 687.908C-84.8537 404.31 14.8665 407.838 206.432 424.598C404.285 430.93 563.899 161.211 771.471 179.371Z" fill="#8BDCFF" fill-opacity="0.5"/>
<path fill-rule="evenodd" clip-rule="evenodd" d="M433.947 295.089H785.238C790.803 295.089 795.255 299.541 795.255 305.106V522.404C795.255 527.97 790.803 532.422 785.238 532.422H433.947C428.382 532.422 423.93 527.97 423.93 522.404V305.106C423.93 299.541 428.467 295.089 433.947 295.089Z" fill="#557CE2"/>
<path opacity="0.3364" fill-rule="evenodd" clip-rule="evenodd" d="M539.771 387.898H552.442C556.809 387.898 560.319 391.409 560.319 395.775C560.319 400.142 556.809 403.652 552.442 403.652H539.771C535.404 403.652 531.894 400.142 531.894 395.775C531.894 391.494 535.404 387.898 539.771 387.898Z" fill="#0644B9"/>
<path opacity="0.3364" fill-rule="evenodd" clip-rule="evenodd" d="M460.231 387.898H516.825C521.191 387.898 524.702 391.409 524.702 395.775C524.702 400.142 521.191 403.652 516.825 403.652H460.231C455.865 403.652 452.355 400.142 452.355 395.775C452.355 391.494 455.865 387.898 460.231 387.898Z" fill="#0644B9"/>
<path opacity="0.3364" fill-rule="evenodd" clip-rule="evenodd" d="M460.231 410.759H490.283C494.65 410.759 498.16 414.269 498.16 418.635C498.16 423.002 494.65 426.512 490.283 426.512H460.231C455.865 426.512 452.355 423.002 452.355 418.635C452.355 414.269 455.865 410.759 460.231 410.759Z" fill="#0644B9"/>
<path opacity="0.3364" fill-rule="evenodd" clip-rule="evenodd" d="M460.231 433.533H507.664C512.03 433.533 515.541 437.043 515.541 441.41C515.541 445.776 512.03 449.286 507.664 449.286H460.231C455.865 449.286 452.355 445.776 452.355 441.41C452.355 437.043 455.865 433.533 460.231 433.533Z" fill="#0644B9"/>
<path fill-rule="evenodd" clip-rule="evenodd" d="M433.947 295.089H785.238C790.803 295.089 795.255 299.541 795.255 305.106V331.733H423.93V305.106C423.93 299.541 428.467 295.089 433.947 295.089Z" fill="#303799"/>
<path d="M444.392 318.805C447.56 318.805 450.128 316.236 450.128 313.068C450.128 309.9 447.56 307.332 444.392 307.332C441.224 307.332 438.656 309.9 438.656 313.068C438.656 316.236 441.224 318.805 444.392 318.805ZM444.392 317.263C442.08 317.263 440.197 315.38 440.197 313.068C440.197 310.757 442.08 308.787 444.392 308.787C446.704 308.787 448.587 310.671 448.587 312.983C448.587 315.294 446.704 317.263 444.392 317.263Z" fill="#BFE4E0"/>
<path d="M465.112 319.147C468.279 319.147 470.848 316.578 470.848 313.41C470.848 310.243 468.279 307.674 465.112 307.674C461.944 307.674 459.375 310.243 459.375 313.41C459.375 316.578 461.944 319.147 465.112 319.147ZM465.112 317.606C462.8 317.606 460.916 315.722 460.916 313.41C460.916 311.099 462.8 309.215 465.112 309.215C467.423 309.215 469.307 311.099 469.307 313.41C469.307 315.722 467.423 317.606 465.112 317.606Z" fill="#BFE4E0"/>
<path d="M485.831 319.147C488.999 319.147 491.568 316.578 491.568 313.41C491.568 310.243 488.999 307.674 485.831 307.674C482.663 307.674 480.095 310.243 480.095 313.41C480.095 316.578 482.663 319.147 485.831 319.147ZM485.831 317.606C483.52 317.606 481.636 315.722 481.636 313.41C481.636 311.099 483.52 309.215 485.831 309.215C488.143 309.215 490.027 311.099 490.027 313.41C490.027 315.722 488.143 317.606 485.831 317.606Z" fill="#BFE4E0"/>
<path d="M475.728 516.24C493.879 495.178 508.006 484.133 517.767 482.934C523.589 482.249 527.356 482.934 533.692 485.16L535.575 485.845C541.825 488.071 545.85 488.756 551.586 487.729C553.041 487.472 554.497 486.873 555.952 485.845C558.863 483.791 561.774 480.366 565.285 475.143L565.542 474.715C566.74 473.003 567.853 471.033 569.309 468.722L575.302 458.79L576.244 457.335L576.843 456.393C585.576 442.266 591.998 434.988 599.446 432.249C606.638 429.594 612.203 429.166 619.395 430.365L619.909 430.451L620.68 430.622C621.108 430.707 621.45 430.793 621.878 430.879L625.474 431.564C636.091 433.704 642.769 434.132 653.043 432.334C660.064 431.135 666.571 426.512 672.992 418.892L673.592 418.207C678.301 412.556 682.667 405.793 688.232 395.946L695.595 382.761C696.965 380.364 698.164 378.224 698.849 377.025L699.534 375.912L700.133 374.884C703.215 369.747 705.784 366.066 708.267 363.412C709.294 362.299 710.322 361.357 711.264 360.586C721.623 352.709 733.439 350.74 746.795 354.679C747.651 354.935 748.507 354.422 748.679 353.651C748.935 352.795 748.422 351.939 747.651 351.768C733.353 347.572 720.596 349.627 709.38 358.189C708.267 359.045 707.154 360.073 705.955 361.357C703.13 364.439 700.304 368.549 696.88 374.371L696.109 375.655L694.825 377.795C691.743 383.275 685.921 393.635 686.177 393.292L685.15 395.005L684.465 396.203C679.242 405.279 675.047 411.615 670.595 416.923C664.516 424.029 658.608 428.224 652.444 429.338C642.855 431.05 636.519 430.707 626.673 428.738L623.163 428.053L622.05 427.796L621.193 427.625C620.937 427.54 620.68 427.54 620.337 427.454C612.46 426.084 606.296 426.426 598.333 429.338C589.772 432.505 582.922 440.553 573.247 456.222L571.364 459.389L567.682 465.554L566.826 467.181C565.456 469.407 564.343 471.205 563.23 472.831L563.059 473.088C559.634 478.225 556.809 481.564 554.24 483.362C553.127 484.133 552.1 484.561 551.072 484.732C546.192 485.503 542.767 485.075 537.545 483.277L536.175 482.763L535.233 482.421C528.127 479.852 523.931 479.082 517.424 479.852C506.636 481.136 492.081 492.524 473.417 514.185C472.903 514.87 472.903 515.812 473.588 516.325C474.273 516.839 475.215 516.925 475.728 516.24Z" fill="#BFE4E0"/>
<path opacity="0.3364" fill-rule="evenodd" clip-rule="evenodd" d="M618.025 450.314H718.969C726.589 450.314 732.839 456.564 732.839 464.184V504.253C732.839 511.873 726.589 518.124 718.969 518.124H618.025C610.405 518.124 604.155 511.873 604.155 504.253V464.184C604.155 456.564 610.405 450.314 618.025 450.314Z" fill="#0644B9"/>
<path opacity="0.3364" fill-rule="evenodd" clip-rule="evenodd" d="M715.887 405.279H755.186C760.751 405.279 765.203 409.731 765.203 415.296V430.707C765.203 436.273 760.751 440.725 755.186 440.725H715.887C710.322 440.725 705.87 436.273 705.87 430.707V415.296C705.87 409.731 710.322 405.279 715.887 405.279Z" fill="#0644B9"/>
<path opacity="0.1318" fill-rule="evenodd" clip-rule="evenodd" d="M346.87 390.6H465.537C472.386 390.6 477.866 396.08 477.866 402.929V478.444C477.866 485.294 472.386 490.773 465.537 490.773H346.87C340.021 490.773 334.541 485.294 334.541 478.444V402.929C334.541 396.165 340.021 390.6 346.87 390.6Z" fill="#557CE2"/>
<path fill-rule="evenodd" clip-rule="evenodd" d="M351.354 379.47H474.644C480.209 379.47 484.661 383.922 484.661 389.487V473.478C484.661 479.044 480.209 483.496 474.644 483.496H351.354C345.789 483.496 341.337 479.044 341.337 473.478V389.487C341.337 383.922 345.789 379.47 351.354 379.47Z" fill="white"/>
<path opacity="0.1318" fill-rule="evenodd" clip-rule="evenodd" d="M570.185 266.192H644.587C651.436 266.192 656.916 271.672 656.916 278.521V330.919C656.916 336.484 652.464 340.937 646.899 340.937H570.185C564.62 340.937 560.167 336.484 560.167 330.919V276.209C560.167 270.644 564.62 266.192 570.185 266.192Z" fill="#557CE2"/>
<path fill-rule="evenodd" clip-rule="evenodd" d="M558.455 271.201H641.419C646.984 271.201 651.436 275.653 651.436 281.218V335.928C651.436 341.493 646.984 345.945 641.419 345.945H558.455C552.89 345.945 548.438 341.493 548.438 335.928V281.218C548.438 275.653 552.89 271.201 558.455 271.201Z" fill="#25D2FF"/>
<path opacity="0.1376" fill-rule="evenodd" clip-rule="evenodd" d="M515.541 325.298H560.233C562.802 325.298 564.857 327.353 564.857 329.921V367.679C564.857 370.247 562.802 372.302 560.233 372.302H515.541C512.972 372.302 510.917 370.247 510.917 367.679V329.921C510.917 327.353 512.972 325.298 515.541 325.298Z" fill="#0644B9"/>
<path fill-rule="evenodd" clip-rule="evenodd" d="M511.688 320.845H556.381C558.949 320.845 561.004 322.9 561.004 325.469V363.226C561.004 365.795 558.949 367.85 556.381 367.85H511.688C509.119 367.85 507.065 365.795 507.065 363.226V325.469C507.065 322.9 509.119 320.845 511.688 320.845Z" fill="#0F2685"/>
<path d="M434.12 674.305H400.985V684.664H434.12V674.305Z" fill="#1EAAE4"/>
<path fill-rule="evenodd" clip-rule="evenodd" d="M419.04 675.062C416.386 628.486 427.516 602.03 452.517 595.609C490.018 586.019 494.298 609.736 490.189 611.876C486.079 614.017 475.291 597.835 463.562 603.828C451.832 609.821 458.168 618.726 443.784 626.003C429.4 633.281 418.698 632.767 424.948 645.096C429.143 653.401 427.174 663.333 419.04 675.062Z" fill="#0F2685"/>
<path fill-rule="evenodd" clip-rule="evenodd" d="M425.849 638.012C406.67 619.347 390.231 611.727 376.533 615.323C355.984 620.631 341.429 643.834 341.429 651.796C341.429 659.759 360.95 652.652 363.604 647.344C366.258 642.036 366.601 634.587 377.817 634.587C389.033 634.587 386.807 617.121 399.649 626.539C408.297 632.874 417.03 636.727 425.849 638.012Z" fill="#0D177A"/>
<path fill-rule="evenodd" clip-rule="evenodd" d="M423.503 646.795C405.865 597.992 387.201 571.793 367.423 568.283C337.799 563.06 329.837 576.245 335.744 580.184C341.652 584.122 352.269 578.215 359.546 592.684C366.824 607.153 382.663 592.684 391.824 599.961C400.985 607.239 412.886 627.702 418.194 648.079C421.705 661.778 423.503 661.264 423.503 646.795Z" fill="#1979C0"/>
<path fill-rule="evenodd" clip-rule="evenodd" d="M378.981 576.673C378.725 575.047 378.296 573.591 377.783 572.307C378.125 572.478 378.468 572.735 378.81 572.992C379.153 574.105 379.495 575.303 379.666 576.588L379.752 577.016C382.492 578.043 385.232 579.328 388.057 580.612C388.571 581.125 389.084 581.725 389.598 582.239C383.605 579.156 377.612 576.759 371.704 575.047C365.454 578.386 361.173 583.951 358.947 591.657C358.776 591.314 358.604 591.057 358.433 590.715C360.659 583.523 364.769 578.214 370.676 574.79C358.433 571.536 346.447 571.279 334.717 574.19C334.888 573.848 335.145 573.591 335.402 573.249C349.529 569.91 364.084 571.108 378.981 576.673Z" fill="#0D177A"/>
<path fill-rule="evenodd" clip-rule="evenodd" d="M415.041 640.485C419.236 629.098 417.01 615.399 408.534 599.56C395.777 575.758 415.64 580.81 415.983 575.673C416.325 570.536 413.243 563.772 413.842 554.782C414.441 545.878 426.599 547.504 427.113 540.912C427.627 534.319 430.623 521.905 440.298 517.452C449.973 513 446.463 500.072 452.884 500.5C459.305 500.928 452.627 514.627 445.949 538.514C439.271 562.402 452.37 570.022 435.589 582.95C418.808 595.878 434.562 608.207 429.853 613.601C425.058 619.081 418.551 634.321 422.318 643.568C424.801 649.732 422.404 648.705 415.041 640.485Z" fill="#1979C0"/>
<path fill-rule="evenodd" clip-rule="evenodd" d="M450.815 505.894L450.473 508.377L450.387 508.719L450.216 509.832C449.959 511.374 449.616 512.572 449.188 513.771C448.418 515.74 447.476 517.281 445.592 519.593L445.079 520.192L444.565 520.792L443.366 522.247L442.938 522.846C441.14 524.987 440.198 526.357 439.428 527.898L439.342 528.069L439.171 528.497C439 528.754 438.914 529.097 438.829 529.353L439.77 529.182C443.794 528.412 447.219 527.47 450.044 526.442C449.959 526.785 449.873 527.042 449.788 527.384C446.705 528.412 443.024 529.353 438.657 530.21H438.486C434.976 538.429 433.948 545.535 434.291 554.183V554.268C434.376 555.638 434.462 557.094 434.548 558.549L434.633 559.491C435.147 565.399 433.435 568.31 428.554 572.248L428.041 572.676L445.164 566.768C445.164 567.025 445.164 567.282 445.164 567.625L426.243 574.217C423.931 576.101 422.647 577.556 421.534 579.526C419.993 582.437 419.393 586.033 419.993 590.913C420.506 595.793 420.849 601.187 421.02 606.923L429.154 602.814C429.239 603.071 429.325 603.327 429.411 603.584L421.106 607.78C421.277 616.598 421.106 626.359 420.421 637.146L420.249 639.287L420.078 641.256L419.907 643.311L419.136 643.225C420.592 623.105 420.677 606.238 419.308 592.625V592.711L418.451 592.111C413.057 587.916 409.033 584.491 406.379 581.923C406.551 581.752 406.722 581.58 406.893 581.409C409.033 583.464 412.116 586.204 416.14 589.372L416.482 589.628L418.023 590.827L419.136 591.683L418.965 590.485C418.451 585.69 419.136 582.094 420.677 579.097C421.791 577.043 423.16 575.502 425.472 573.618V573.532L425.643 573.447L425.9 573.275L426.414 572.847L427.869 571.649C432.578 567.882 434.12 565.142 433.606 559.577L433.52 558.72C433.435 557.265 433.263 555.895 433.263 554.611L425.558 544.508C425.729 544.337 425.9 544.165 426.071 543.994L433.178 553.326C432.921 544.508 434.291 537.059 438.229 528.412C439 526.614 439.942 525.244 441.654 523.103L441.911 522.846L442.596 521.99L444.051 520.278L444.565 519.679C446.534 517.196 447.562 515.74 448.332 513.771C448.76 512.658 449.103 511.459 449.36 510.004L449.445 509.404L449.531 508.805L449.959 505.808C450.216 503.925 450.558 502.469 450.901 501.442C451.243 501.185 451.586 501.014 452.014 500.928C451.586 501.613 451.157 503.24 450.815 505.894Z" fill="#0D177A"/>
<path fill-rule="evenodd" clip-rule="evenodd" d="M381.756 635.538H453.162L447.853 657.97C444.514 672.011 432.014 681.943 417.544 681.943C403.075 681.943 390.489 672.011 387.064 657.97L381.756 635.538Z" fill="#1EAAE4"/>
<path fill-rule="evenodd" clip-rule="evenodd" d="M453.032 635.624L447.379 658.25C443.823 672.413 430.511 682.43 415.101 682.43C409.904 682.43 404.981 681.307 400.513 679.235C404.798 670.599 413.734 664.727 427.319 661.618C442.182 658.164 444.187 646.333 443.823 635.538L453.032 635.624Z" fill="url(#paint3_linear)"/>
<path d="M636.881 570.607H629.175V671.123H636.881V570.607Z" fill="#0F2685"/>
<path fill-rule="evenodd" clip-rule="evenodd" d="M618.901 563.244H790.137C792.192 563.244 793.904 564.957 793.904 567.011C793.904 569.066 792.192 570.779 790.137 570.779H618.901C616.846 570.779 615.134 569.066 615.134 567.011C615.134 564.957 616.846 563.244 618.901 563.244Z" fill="#0F2685"/>
<path opacity="0.1376" fill-rule="evenodd" clip-rule="evenodd" d="M555.403 601.228C580.489 601.228 600.866 580.851 600.866 555.765C600.866 530.679 580.489 510.302 555.403 510.302C530.317 510.302 509.854 530.679 509.854 555.765C509.854 580.851 530.231 601.228 555.403 601.228ZM555.403 582.735C540.506 582.735 528.433 570.663 528.433 555.765C528.433 540.868 540.506 528.796 555.403 528.796C570.301 528.796 582.373 540.868 582.373 555.765C582.373 570.663 570.215 582.735 555.403 582.735Z" fill="#0644B9"/>
<path d="M550.694 601.228C575.78 601.228 596.157 580.851 596.157 555.765C596.157 530.679 575.866 510.302 550.694 510.302C525.523 510.302 505.317 530.679 505.317 555.765C505.317 580.851 525.608 601.228 550.694 601.228ZM550.694 582.735C535.882 582.735 523.725 570.663 523.725 555.765C523.725 540.868 535.797 528.795 550.694 528.795C565.592 528.795 577.664 540.868 577.664 555.765C577.664 570.663 565.592 582.735 550.694 582.735Z" fill="white"/>
<path fill-rule="evenodd" clip-rule="evenodd" d="M569.445 575.201L585.027 585.561C576.722 595.15 564.393 601.229 550.694 601.229C542.646 601.229 535.112 599.174 528.605 595.492L537.338 579.225C541.276 581.451 545.814 582.821 550.694 582.821C557.972 582.735 564.65 579.824 569.445 575.201Z" fill="#303799"/>
<path d="M558.914 511.073C567.561 512.614 575.352 516.638 581.517 522.289L569.958 536.844C565.677 532.477 560.027 529.566 553.605 528.881L558.914 511.073Z" fill="#BDE2F9"/>
<path fill-rule="evenodd" clip-rule="evenodd" d="M572.698 571.348L588.109 581.622C579.89 593.437 566.191 601.229 550.694 601.229C549.752 601.229 548.896 601.229 547.954 601.143V582.564C548.811 582.649 549.752 582.735 550.609 582.735C559.855 582.735 567.818 578.283 572.698 571.348Z" fill="#25D2FF"/>
<path opacity="0.3134" fill-rule="evenodd" clip-rule="evenodd" d="M620.68 418.768C638.659 467.571 657.153 491.972 676.16 491.972C695.167 491.972 707.239 484.266 712.376 468.855L737.805 532.64H753.987L754.757 511.236C762.463 509.181 765.545 504.558 764.004 497.366C762.463 490.174 755.528 478.102 743.199 461.149L710.065 454.214L683.095 466.543L658.437 461.149L620.68 418.768Z" fill="#0644B9"/>
<path d="M747.822 703.363C747.994 703.705 747.651 704.048 747.309 703.877L746.624 703.534C743.884 702.164 742 700.966 740.887 699.938C739.603 698.739 739.346 697.712 740.374 697.027C742.172 695.828 744.483 697.798 747.48 702.764L747.822 703.363ZM745.853 702.25L746.453 702.592L746.11 702.079C743.713 698.397 741.829 696.942 740.716 697.712C740.202 698.055 740.374 698.568 741.316 699.424C742.343 700.195 743.798 701.137 745.853 702.25Z" fill="#4482FA"/>
<path fill-rule="evenodd" clip-rule="evenodd" d="M747.309 437.348C761.949 469.797 766.744 489.575 761.949 496.595C757.155 503.616 743.285 507.126 720.596 507.126L747.309 437.348Z" fill="#E3E7FD"/>
<path fill-rule="evenodd" clip-rule="evenodd" d="M707.076 685.041V710.212H655.962C657.675 706.445 659.302 704.562 661.014 704.562C663.497 704.562 686.186 699.681 687.812 685.126C688.925 675.28 695.347 675.28 707.076 685.041Z" fill="#4482FA"/>
<path fill-rule="evenodd" clip-rule="evenodd" d="M707.076 685.041V710.212H679.593C686.956 707.387 691.323 703.705 692.778 699.339C694.319 694.63 694.747 685.725 695.689 678.105C698.686 678.876 702.453 681.188 707.076 685.041Z" fill="url(#paint4_linear)"/>
<path fill-rule="evenodd" clip-rule="evenodd" d="M749.974 679.975C748.914 691.321 748.105 697.603 747.542 698.651C746.743 700.306 740.259 703.531 739.431 704.331C738.85 704.865 738.06 706.778 736.972 709.986L774.84 710.034L769.422 679.982L749.974 679.975Z" fill="#4482FA"/>
<path fill-rule="evenodd" clip-rule="evenodd" d="M744.91 514.144C750.598 566.633 754.397 596.913 756.309 605.071C758.222 613.228 763.772 639.678 772.965 684.591L745.208 684.618C740.149 667.317 732.712 643.247 722.983 612.403C713.253 581.558 720.591 548.833 744.91 514.144Z" fill="#1A217C"/>
<path fill-rule="evenodd" clip-rule="evenodd" d="M736.699 526.853C737.196 528.806 737.224 532.061 736.701 536.705C733.753 562.681 739.501 611.997 753.776 684.661L745.124 684.706C740.065 667.406 732.628 643.336 722.898 612.491C714.421 585.63 718.832 557.376 736.216 527.727L736.699 526.853Z" fill="url(#paint5_linear)"/>
<path fill-rule="evenodd" clip-rule="evenodd" d="M636.81 424.458C632.015 412.557 628.761 405.793 627.135 404.166C624.652 401.769 614.121 396.032 614.121 397.659C614.121 398.772 616.518 400.913 621.398 404.166C617.117 409.046 615.748 412.813 617.374 415.553C619.001 418.293 621.741 421.204 625.508 424.458L630.388 434.218L636.81 424.458Z" fill="#FB9EA8"/>
<path fill-rule="evenodd" clip-rule="evenodd" d="M616.775 413.67C619.857 417.608 625.594 422.66 634.156 428.653L630.388 434.218L625.508 424.458C621.741 421.204 619.001 418.207 617.374 415.553C617.032 414.954 616.775 414.355 616.775 413.67Z" fill="url(#paint6_linear)"/>
<path fill-rule="evenodd" clip-rule="evenodd" d="M695.31 518.685C686.148 567.915 681.525 596.854 681.525 605.502C681.525 614.149 681.525 640.947 681.525 685.811H709.95L711.577 605.502C731.098 567.915 741.715 545.312 743.341 537.692C744.968 530.072 744.968 518.77 743.341 503.616L695.31 518.685Z" fill="#303799"/>
<path fill-rule="evenodd" clip-rule="evenodd" d="M743.256 503.616C744.882 518.771 744.882 530.158 743.256 537.692C741.629 545.227 731.012 567.83 711.491 605.502L709.865 685.811H701.645C699.847 626.821 703.786 584.268 713.632 558.241C722.194 535.552 721.68 519.712 722.365 510.209L743.256 503.616Z" fill="url(#paint7_linear)"/>
<path fill-rule="evenodd" clip-rule="evenodd" d="M712.729 395.17C710.873 406.07 710.272 413.069 710.927 416.169C711.581 419.268 713.571 421.324 717.003 422.177L716.476 428.582L733.26 426.071C732.286 422.759 731.835 420.116 732.011 417.981C732.176 415.931 733.03 413.189 734.552 409.926L712.729 395.17Z" fill="#FB9EA8"/>
<path fill-rule="evenodd" clip-rule="evenodd" d="M733.896 411.053L733.79 411.212C732.596 413.912 731.975 416.165 731.841 417.96C731.675 420.01 732.116 422.738 733.09 426.05L716.391 428.571L716.919 422.166C716.589 422.04 716.334 422.008 716.09 421.892C717.604 415.177 717.688 409.58 716.414 405.197C714.553 399.275 720.441 401.206 733.896 411.053Z" fill="url(#paint8_linear)"/>
<path fill-rule="evenodd" clip-rule="evenodd" d="M705.647 381.57C704.645 389.728 706.814 395.946 712.091 400.044C717.367 404.143 719.733 408.056 719.029 411.679C722.015 407.733 723.915 407.017 724.557 409.511C725.285 412.016 724.291 413.791 721.659 414.848C722.157 419.223 724.871 421.712 729.8 422.318C736.598 423.152 748.593 406.251 748.846 395.759C748.824 395.238 751.174 396.476 751.181 395.01C751.189 393.545 748.982 394.654 748.854 394.293C748.606 392.796 750.589 391.401 748.869 391.362C747.318 391.344 748.193 393.35 747.311 392.81C744.514 391 744.95 381.824 731.852 379.611C725.775 378.52 717.138 382.118 711.066 383.098C709.219 383.388 707.466 382.914 705.647 381.57Z" fill="#251414"/>
<path fill-rule="evenodd" clip-rule="evenodd" d="M692.452 528.518C696.903 530 706.308 529.507 720.497 527.048C734.686 524.59 744.379 524.682 749.485 527.244C749.698 521.489 748.912 516.3 747.045 511.768C745.179 507.236 743.888 503.874 743.169 501.597L692.452 528.518Z" fill="#FF7533"/>
<path fill-rule="evenodd" clip-rule="evenodd" d="M637.01 417.824L674.171 459.43C689.466 442.082 700.902 432.909 708.399 432.002C714.191 431.27 723.479 430.183 736.354 428.822C742.663 428.148 748.391 432.735 749.064 439.044C749.082 439.386 749.096 439.643 749.113 439.985L751.247 516.692C739.872 515.573 730.386 516.156 722.87 518.351C708.505 522.361 696.219 528.407 691.35 530.377C686.57 532.427 692.128 509.245 693.805 498.697C694.895 491.695 695.905 483.155 696.924 473.156C687.229 484.467 677.553 487.975 668.154 483.666C658.669 479.362 645.047 461.557 627.112 430.175L637.01 417.824Z" fill="white"/>
<path d="M732.534 508.07L750.196 508.088C750.367 508.079 750.615 507.894 750.606 507.723C750.597 507.552 750.412 507.305 750.241 507.314L732.579 507.296C732.408 507.305 732.16 507.49 732.169 507.661C732.093 507.836 732.277 508.084 732.534 508.07Z" fill="#251414"/>
<path fill-rule="evenodd" clip-rule="evenodd" d="M707.394 461.89C698.637 482.926 699.947 498.118 711.236 507.386C715.622 510.928 719.415 514.588 722.528 518.368L722.951 518.261C708.505 522.361 696.219 528.407 691.35 530.376C686.57 532.427 692.128 509.245 693.805 498.697C694.9 491.781 695.914 483.326 696.942 473.498L707.394 461.89Z" fill="url(#paint9_linear)"/>
<path fill-rule="evenodd" clip-rule="evenodd" d="M711.551 431.837C713.178 428.583 715.318 426.7 718.058 426.186C720.798 425.672 726.962 424.816 736.723 423.703L737.493 429.354L711.551 431.837Z" fill="white"/>
<path d="M673.078 700.965C673.249 701.308 672.907 701.65 672.564 701.479C669.482 699.938 667.341 698.654 666.143 697.541C664.858 696.342 664.602 695.315 665.629 694.63C667.427 693.431 669.824 695.657 673.078 700.965ZM671.023 699.852L671.622 700.195L671.28 699.681C668.883 696 666.999 694.544 665.886 695.315C665.372 695.657 665.543 696.171 666.485 697.027C667.513 697.798 668.968 698.739 671.023 699.852Z" fill="#4482FA"/>
<path d="M674.277 699.681C674.191 700.024 673.677 700.109 673.506 699.767L673.249 699.082C672.393 696.856 671.965 695.229 671.794 694.03C671.622 692.575 672.051 691.804 673.078 691.976C674.79 692.232 675.133 694.63 674.277 699.082V699.681ZM673.763 698.226C674.277 694.715 674.02 693.003 673.078 692.832C672.65 692.746 672.564 693.089 672.65 694.03C672.735 694.887 673.078 696.085 673.592 697.541L673.763 698.226Z" fill="#4482FA"/>
<path d="M632.495 438.632L640.971 429.385" stroke="#251414" stroke-width="0.9" stroke-linecap="round"/>
</g>
<defs>
<linearGradient id="paint0_linear" x1="403.323" y1="799.485" x2="-301.773" y2="86.7249" gradientUnits="userSpaceOnUse">
<stop stop-color="white"/>
<stop offset="1" stop-color="#44A1FF"/>
</linearGradient>
<linearGradient id="paint1_linear" x1="841.89" y1="813.462" x2="-81.6332" y2="79.6256" gradientUnits="userSpaceOnUse">
<stop stop-color="#DEF4FF"/>
<stop offset="0.326668" stop-color="#21CCFD"/>
<stop offset="0.862273" stop-color="#0C1679"/>
</linearGradient>
<linearGradient id="paint2_linear" x1="841.265" y1="813.462" x2="-82.2583" y2="79.6255" gradientUnits="userSpaceOnUse">
<stop stop-color="#DEF4FF"/>
<stop offset="0.326668" stop-color="#21CCFD"/>
<stop offset="0.862273" stop-color="#0C1679"/>
</linearGradient>
<linearGradient id="paint3_linear" x1="418.997" y1="646.84" x2="443.271" y2="687.898" gradientUnits="userSpaceOnUse">
<stop stop-color="#1EAAE4"/>
<stop offset="1" stop-color="#0D177A"/>
</linearGradient>
<linearGradient id="paint4_linear" x1="687.837" y1="697.701" x2="701.347" y2="695.079" gradientUnits="userSpaceOnUse">
<stop stop-color="#4482FA"/>
<stop offset="1" stop-color="#414CD0"/>
</linearGradient>
<linearGradient id="paint5_linear" x1="737.851" y1="670.522" x2="726.035" y2="572.393" gradientUnits="userSpaceOnUse">
<stop stop-color="#303799"/>
<stop offset="1" stop-color="#13185C"/>
</linearGradient>
<linearGradient id="paint6_linear" x1="616.485" y1="421.145" x2="633.95" y2="426.045" gradientUnits="userSpaceOnUse">
<stop stop-color="#FB9EA8"/>
<stop offset="1" stop-color="#D15166"/>
</linearGradient>
<linearGradient id="paint7_linear" x1="722.46" y1="663.028" x2="737.365" y2="516.317" gradientUnits="userSpaceOnUse">
<stop stop-color="#303799"/>
<stop offset="1" stop-color="#13185C"/>
</linearGradient>
<linearGradient id="paint8_linear" x1="716.133" y1="412.896" x2="731.697" y2="418.337" gradientUnits="userSpaceOnUse">
<stop stop-color="#FB9EA8"/>
<stop offset="1" stop-color="#D15166"/>
</linearGradient>
<linearGradient id="paint9_linear" x1="705.933" y1="515.658" x2="710.312" y2="468.286" gradientUnits="userSpaceOnUse">
<stop stop-color="#E3E7FD"/>
<stop offset="1" stop-color="white"/>
</linearGradient>
</defs>
</svg>
